<svg version="1.2" xmlns="http://www.w3.org/2000/svg" viewBox="0 0 4680 3120" width="4680" height="3120">
	<title>vecteezy_young-female-computer-programmer-coding-at-laptop_11634361-ai</title>
	<style>
		.s0 { opacity: 0;fill: #ffffff } 
		.s1 { fill: #f5f5f7 } 
		.s2 { fill: #7a8db0 } 
		.s3 { fill: #facc88 } 
		.s4 { opacity: .6;fill: #9bb0c4 } 
		.s5 { fill: #a2bcdb } 
		.s6 { fill: #ffffff } 
		.s7 { fill: #e6f1ff } 
		.s8 { fill: #c2c2c2 } 
		.s9 { fill: #bbd6f2 } 
		.s10 { fill: #7b97b2 } 
		.s11 { fill: #898989 } 
		.s12 { opacity: .6;fill: #c9c9c9 } 
		.s13 { opacity: .3;fill: #a2bcdb } 
		.s14 { fill: #1d2f59 } 
		.s15 { fill: #88b0e2 } 
		.s16 { fill: #606060 } 
		.s17 { fill: #2e4ea4 } 
		.s18 { fill: #679bd3 } 
		.s19 { fill: #d1dbed } 
		.s20 { fill: #6fc183 } 
		.s21 { opacity: .6;fill: #419786 } 
		.s22 { fill: #32776a } 
		.s23 { fill: #419786 } 
		.s24 { fill: #f4aea2 } 
		.s25 { fill: #f18a8b } 
		.s26 { fill: #000000 } 
		.s27 { fill: #5a80af } 
		.s28 { opacity: .5;fill: #5a80af } 
		.s29 { fill: #828282 } 
		.s30 { fill: #a5a5a5 } 
		.s31 { fill: #f4a471 } 
		.s32 { fill: #5f7393 } 
		.s33 { fill: #f7f7f7 } 
		.s34 { fill: #0d0d0d } 
		.s35 { fill: #d1696e } 
		.s36 { opacity: .2;fill: #ffffff } 
	</style>
	<g id="01">
		<g id="&lt;Group&gt;">
			<path id="01 1 " class="s0" d="m4679.9 3120.3h-4680v-3120h4680z" />
			<g id="&lt;Group&gt;">
				<g id="&lt;Group&gt;">
					<path id="&lt;Path&gt;" class="s1" d="m3884.7 1619.3c0 388.4-259.7 721.8-630.8 866.4c-79.2 59.2-376 124.2-882.3 155.6c-411.3 25.5-684.3-54.4-791.1-93.9c-450.2-129-782.9-583.9-782.9-1125.3c0-641.6 467.3-1161.8 1043.7-1161.8c327.7 0 620.1 168.3 811.4 431.3c61.1-10 124.1-15.3 188.4-15.3c576.4 0 1043.6 422.2 1043.6 943z" />
					<g id="&lt;Group&gt;">
						<path id="&lt;Path&gt;" class="s2" d="m3744.4 2530.8l274.9 270.2l-3360.8-0.6l248.7-264z" />
						<path id="&lt;Compound Path&gt;" fill-rule="evenodd" class="s3" d="m3538 1047.3l-7.9 22.2c-2.2 6.1-8.8 9.2-14.8 7.1l-11.6-4.2c-4.8-1.7-10.3-0.1-13.3 4.2c-5.6 8.1-12.3 15.4-19.7 21.8c-3.9 3.3-5 8.9-2.8 13.6l5.3 11.1c2.7 5.8 0.2 12.7-5.6 15.5l-21.3 10.1c-5.7 2.7-12.6 0.2-15.4-5.6l-5.2-11.1c-2.3-4.7-7.3-7.3-12.4-6.4c-9.6 1.6-19.4 2.2-29.3 1.4c-5.1-0.4-9.9 2.8-11.6 7.6l-4.2 11.6c-2.1 6.1-8.7 9.2-14.8 7l-22.2-7.9c-6-2.1-9.1-8.8-7-14.8l4.2-11.6c1.7-4.9 0-10.3-4.2-13.3c-8.1-5.7-15.4-12.4-21.7-19.7c-3.4-3.9-9-5.1-13.6-2.9l-11.2 5.3c-5.8 2.7-12.7 0.3-15.4-5.5l-10.1-21.4c-2.7-5.7-0.3-12.7 5.5-15.4l11.2-5.3c4.6-2.2 7.3-7.2 6.4-12.3c-1.7-9.6-2.2-19.5-1.5-29.4c0.4-5.1-2.7-9.9-7.6-11.6l-11.6-4.2c-6-2.1-9.1-8.7-7-14.8l8-22.2c2.1-6 8.7-9.2 14.8-7l11.6 4.2c4.8 1.7 10.3 0 13.2-4.2c5.7-8.2 12.4-15.5 19.7-21.8c3.9-3.4 5.1-9 2.9-13.6l-5.3-11.2c-2.7-5.8-0.3-12.7 5.5-15.4l21.3-10.1c5.8-2.7 12.7-0.3 15.4 5.5l5.3 11.2c2.2 4.6 7.3 7.3 12.3 6.4c9.6-1.7 19.5-2.2 29.4-1.5c5.1 0.4 9.8-2.7 11.6-7.6l4.1-11.6c2.2-6 8.8-9.1 14.8-7l22.2 8c6 2.1 9.2 8.7 7 14.8l-4.1 11.6c-1.7 4.8-0.1 10.3 4.1 13.2c8.2 5.8 15.5 12.4 21.8 19.8c3.4 3.9 9 5 13.6 2.8l11.2-5.3c5.7-2.7 12.6-0.2 15.3 5.6l10.1 21.3c2.8 5.8 0.3 12.7-5.5 15.4l-11.1 5.3c-4.7 2.2-7.3 7.3-6.4 12.3c1.6 9.6 2.2 19.5 1.4 29.4c-0.4 5.2 2.8 9.9 7.6 11.7l11.6 4.1c6 2.2 9.2 8.8 7 14.8zm-113.7-95.3c-38.8-21.5-86.6 1.1-94.6 44.8c-4.8 26.5 8.1 53.9 31.7 66.9c38.8 21.6 86.5-1 94.5-44.8c4.8-26.4-8.1-53.8-31.6-66.9z" />
						<g id="&lt;Group&gt;" style="opacity: .5">
							<path id="&lt;Path&gt;" class="s4" d="m2965.7 757.9v1246.9c0 14.3-11.6 26-26 26h-1829.7c-14.4 0-26-11.7-26-26v-1246.9c0-14.4 11.6-26 26-26h1829.7c14.4 0 26 11.6 26 26z" />
						</g>
						<g id="&lt;Group&gt;">
							<g id="&lt;Group&gt;">
								<g id="&lt;Group&gt;">
									<g id="&lt;Group&gt;">
										<path id="&lt;Path&gt;" class="s5" d="m2905.3 788.7v1101.3c0 46.9-35.9 84.8-80.3 84.8h-1698.4c-44.3 0-80.2-37.9-80.2-84.8v-1101.3c0-46.8 35.9-84.8 80.2-84.8h1698.4c44.4 0 80.3 38 80.3 84.8z" />
									</g>
									<g id="&lt;Group&gt;">
										<path id="&lt;Path&gt;" class="s5" d="m2905.3 788.7v87.8h-1858.9v-87.8c0-46.8 35.9-84.8 80.2-84.8h1698.4c44.4 0 80.3 38 80.3 84.8z" />
										<g id="&lt;Group&gt;">
											<path id="&lt;Path&gt;" class="s6" d="m1291.6 761c0 11.9-9.9 21.5-22.1 21.5c-12.2 0-22.1-9.6-22.1-21.5c0-11.8 9.9-21.5 22.1-21.5c12.2 0 22.1 9.7 22.1 21.5z" />
											<path id="&lt;Path&gt;" class="s6" d="m1234 761c0 11.9-9.9 21.5-22.1 21.5c-12.2 0-22.1-9.6-22.1-21.5c0-11.8 9.9-21.5 22.1-21.5c12.2 0 22.1 9.7 22.1 21.5z" />
											<path id="&lt;Path&gt;" class="s6" d="m1175 761c0 11.9-9.9 21.5-22.1 21.5c-12.2 0-22.1-9.6-22.1-21.5c0-11.8 9.9-21.5 22.1-21.5c12.2 0 22.1 9.7 22.1 21.5z" />
										</g>
									</g>
								</g>
							</g>
							<g id="&lt;Group&gt;">
								<path id="&lt;Path&gt;" class="s7" d="m1130.1 803.1h1693.8v1072.2h-1693.8z" />
								<g id="&lt;Group&gt;">
									<path id="&lt;Path&gt;" class="s5" d="m1486.8 958.3v1.1c0 6.6-5.3 11.9-11.9 11.9h-152.4c-6.5 0-11.9-5.3-11.9-11.9v-1.1c0-6.6 5.4-11.9 11.9-11.9h152.4c6.6 0 11.9 5.3 11.9 11.9z" />
									<path id="&lt;Path&gt;" class="s5" d="m1903.2 958.3v1.1c0 6.6-5.3 11.9-11.9 11.9h-336.8c-6.5 0-11.9-5.3-11.9-11.9v-1.1c0-6.6 5.4-11.9 11.9-11.9h336.8c6.6 0 11.9 5.3 11.9 11.9z" />
									<path id="&lt;Path&gt;" class="s6" d="m1561.6 1059.2v1.2c0 6.6-5.3 11.9-11.9 11.9h-152.4c-6.5 0-11.9-5.3-11.9-11.9v-1.2c0-6.5 5.4-11.9 11.9-11.9h152.4c6.6 0 11.9 5.4 11.9 11.9z" />
									<path id="&lt;Path&gt;" class="s6" d="m1561.6 1152.9v1.2c0 6.6-5.3 11.9-11.9 11.9h-152.4c-6.5 0-11.9-5.3-11.9-11.9v-1.2c0-6.5 5.4-11.9 11.9-11.9h152.4c6.6 0 11.9 5.4 11.9 11.9z" />
									<path id="&lt;Path&gt;" class="s6" d="m1561.6 1246.7v1.1c0 6.6-5.3 11.9-11.9 11.9h-152.4c-6.5 0-11.9-5.3-11.9-11.9v-1.1c0-6.6 5.4-11.9 11.9-11.9h152.4c6.6 0 11.9 5.3 11.9 11.9z" />
									<path id="&lt;Path&gt;" class="s6" d="m1561.6 1340.4v1.1c0 6.6-5.3 11.9-11.9 11.9h-152.4c-6.5 0-11.9-5.3-11.9-11.9v-1.1c0-6.6 5.4-11.9 11.9-11.9h152.4c6.6 0 11.9 5.3 11.9 11.9z" />
									<path id="&lt;Path&gt;" class="s8" d="m1310.6 1427.6h176.2v25h-176.2z" />
									<path id="&lt;Path&gt;" class="s5" d="m1903.2 1439.5v1.2c0 6.5-5.3 11.9-11.9 11.9h-336.8c-6.5 0-11.9-5.4-11.9-11.9v-1.2c0-6.5 5.4-11.9 11.9-11.9h336.8c6.6 0 11.9 5.4 11.9 11.9z" />
									<path id="&lt;Path&gt;" class="s6" d="m2655.2 1540.5v1.1c0 6.6-5.4 11.9-11.9 11.9h-301.8c-6.6 0-11.9-5.3-11.9-11.9v-1.1c0-6.6 5.3-11.9 11.9-11.9h301.8c6.5 0 11.9 5.3 11.9 11.9z" />
									<path id="&lt;Path&gt;" class="s6" d="m2655.2 1634.2v1.1c0 6.6-5.4 12-11.9 12h-301.8c-6.6 0-11.9-5.4-11.9-12v-1.1c0-6.6 5.3-11.9 11.9-11.9h301.8c6.5 0 11.9 5.3 11.9 11.9z" />
									<path id="&lt;Path&gt;" class="s6" d="m2655.2 1727.9v1.2c0 6.5-5.4 11.9-11.9 11.9h-301.8c-6.6 0-11.9-5.4-11.9-11.9v-1.2c0-6.6 5.3-11.9 11.9-11.9h301.8c6.5 0 11.9 5.3 11.9 11.9z" />
								</g>
								<path id="&lt;Path&gt;" class="s9" d="m1846.9 1057.7v7.2c0 6.9-5.6 12.5-12.5 12.5h-169.6c-6.9 0-12.5-5.6-12.5-12.5v-7.2c0-6.9 5.6-12.5 12.5-12.5h169.6c6.9 0 12.5 5.6 12.5 12.5z" />
								<path id="&lt;Path&gt;" class="s6" d="m2187.7 1057.7v7.2c0 6.9-5.6 12.5-12.5 12.5h-169.6c-6.9 0-12.5-5.6-12.5-12.5v-7.2c0-6.9 5.6-12.5 12.5-12.5h169.6c6.9 0 12.5 5.6 12.5 12.5z" />
								<path id="&lt;Path&gt;" class="s9" d="m2007.3 1146.3v7.2c0 6.8-5.6 12.4-12.5 12.4h-333.7c-6.9 0-12.5-5.6-12.5-12.4v-7.2c0-6.9 5.6-12.5 12.5-12.5h333.7c6.9 0 12.5 5.6 12.5 12.5z" />
								<path id="&lt;Path&gt;" class="s9" d="m2404.4 1150.9v7.2c0 6.9-5.5 12.4-12.4 12.4h-333.8c-6.9 0-12.5-5.5-12.5-12.4v-7.2c0-6.9 5.6-12.5 12.5-12.5h333.8c6.9 0 12.4 5.6 12.4 12.5z" />
								<path id="&lt;Path&gt;" class="s9" d="m2621.1 1244v7.2c0 6.9-5.6 12.5-12.5 12.5h-333.8c-6.9 0-12.4-5.6-12.4-12.5v-7.2c0-6.9 5.5-12.5 12.4-12.5h333.8c6.9 0 12.5 5.6 12.5 12.5z" />
								<path id="&lt;Path&gt;" class="s6" d="m1963.3 1337.1v7.3c0 6.8-5.6 12.4-12.4 12.4h-319.5c-6.9 0-12.5-5.6-12.5-12.4v-7.3c0-6.8 5.6-12.4 12.5-12.4h319.5c6.8 0 12.4 5.6 12.4 12.4z" />
								<path id="&lt;Path&gt;" class="s9" d="m2186.9 1244v7.2c0 6.9-5.6 12.5-12.5 12.5h-521.6c-6.9 0-12.5-5.6-12.5-12.5v-7.2c0-6.9 5.6-12.5 12.5-12.5h521.6c6.9 0 12.5 5.6 12.5 12.5z" />
								<path id="&lt;Path&gt;" class="s10" d="m2655.7 1337.1v7.3c0 6.8-5.6 12.4-12.5 12.4h-521.6c-6.9 0-12.5-5.6-12.5-12.4v-7.3c0-6.8 5.6-12.4 12.5-12.4h521.6c6.9 0 12.5 5.6 12.5 12.4z" />
								<path id="&lt;Path&gt;" class="s10" d="m1959.2 1057.7v7.2c0 6.9-5.6 12.5-12.5 12.5h-63.4c-6.9 0-12.4-5.6-12.4-12.5v-7.2c0-6.9 5.5-12.5 12.4-12.5h63.4c6.9 0 12.5 5.6 12.5 12.5z" />
								<path id="&lt;Path&gt;" class="s6" d="m2306.5 1057.7v7.2c0 6.9-5.6 12.5-12.5 12.5h-63.3c-6.9 0-12.5-5.6-12.5-12.5v-7.2c0-6.9 5.6-12.5 12.5-12.5h63.3c6.9 0 12.5 5.6 12.5 12.5z" />
								<path id="&lt;Path&gt;" class="s6" d="m2426.5 1057.7v7.2c0 6.9-5.5 12.5-12.4 12.5h-63.4c-6.9 0-12.4-5.6-12.4-12.5v-7.2c0-6.9 5.5-12.5 12.4-12.5h63.4c6.9 0 12.4 5.6 12.4 12.5z" />
								<path id="&lt;Path&gt;" class="s9" d="m2514.8 1150.9v7.2c0 6.9-5.5 12.4-12.4 12.4h-63.4c-6.9 0-12.5-5.5-12.5-12.4v-7.2c0-6.9 5.6-12.5 12.5-12.5h63.4c6.9 0 12.4 5.6 12.4 12.5z" />
								<path id="&lt;Path&gt;" class="s10" d="m2732.8 1244v7.2c0 6.9-5.6 12.5-12.4 12.5h-63.4c-6.9 0-12.5-5.6-12.5-12.5v-7.2c0-6.9 5.6-12.5 12.5-12.5h63.4c6.8 0 12.4 5.6 12.4 12.5z" />
								<path id="&lt;Path&gt;" class="s9" d="m2081.4 1337.1v7.3c0 6.8-5.6 12.4-12.5 12.4h-63.3c-6.9 0-12.5-5.6-12.5-12.4v-7.3c0-6.8 5.6-12.4 12.5-12.4h63.3c6.9 0 12.5 5.6 12.5 12.4z" />
								<path id="&lt;Path&gt;" class="s9" d="m2626.6 1150.9v7.2c0 6.9-5.6 12.4-12.5 12.4h-63.3c-6.9 0-12.5-5.5-12.5-12.4v-7.2c0-6.9 5.6-12.5 12.5-12.5h63.3c6.9 0 12.5 5.6 12.5 12.5z" />
								<g id="&lt;Group&gt;">
									<path id="&lt;Path&gt;" class="s10" d="m2263.2 1537.1v6.5c0 6.9-5.6 12.5-12.5 12.5h-313.2c-6.9 0-12.5-5.6-12.5-12.5v-6.5c0-6.8 5.6-12.4 12.5-12.4h313.2c6.9 0 12.5 5.6 12.5 12.4z" />
									<path id="&lt;Path&gt;" class="s9" d="m1906.8 1537.1v6.5c0 6.9-5.6 12.5-12.5 12.5h-313.2c-6.9 0-12.5-5.6-12.5-12.5v-6.5c0-6.8 5.6-12.4 12.5-12.4h313.2c6.9 0 12.5 5.6 12.5 12.4z" />
									<path id="&lt;Path&gt;" class="s9" d="m1702.6 1628.1v6.5c0 6.9-5.6 12.5-12.5 12.5h-313.2c-6.9 0-12.5-5.6-12.5-12.5v-6.5c0-6.8 5.6-12.4 12.5-12.4h313.2c6.9 0 12.5 5.6 12.5 12.4z" />
									<path id="&lt;Path&gt;" class="s9" d="m2264.6 1719.2v6.4c0 6.9-5.6 12.5-12.5 12.5h-255.2c-6.8 0-12.4-5.6-12.4-12.5v-6.4c0-6.9 5.6-12.5 12.4-12.5h255.2c6.9 0 12.5 5.6 12.5 12.5z" />
									<path id="&lt;Path&gt;" class="s9" d="m2263.3 1629.7v6.5c0 6.9-5.6 12.4-12.5 12.4h-490.4c-6.8 0-12.4-5.5-12.4-12.4v-6.5c0-6.9 5.6-12.5 12.4-12.5h490.4c6.9 0 12.5 5.6 12.5 12.5z" />
									<path id="&lt;Path&gt;" class="s10" d="m1847.1 1719.2v6.4c0 6.9-5.6 12.5-12.5 12.5h-490.4c-6.8 0-12.4-5.6-12.4-12.5v-6.4c0-6.9 5.6-12.5 12.4-12.5h490.4c6.9 0 12.5 5.6 12.5 12.5z" />
									<path id="&lt;Path&gt;" class="s9" d="m1547.8 1537.1v6.5c0 6.9-5.6 12.5-12.5 12.5h-58.3c-6.9 0-12.4-5.6-12.4-12.5v-6.5c0-6.8 5.5-12.4 12.4-12.4h58.3c6.9 0 12.5 5.6 12.5 12.4z" />
									<path id="&lt;Path&gt;" class="s11" d="m1259.1 1615.7h83.2v31.4h-83.2z" />
									<path id="&lt;Path&gt;" class="s6" d="m1956.4 1722.4c0 8.7-7 15.7-15.7 15.7h-51.8c-8.7 0-15.7-7-15.7-15.7c0-8.7 7-15.7 15.7-15.7h51.8c8.7 0 15.7 7 15.7 15.7z" />
									<path id="&lt;Path&gt;" class="s11" d="m1359.2 1524.7h83.3v31.4h-83.3z" />
								</g>
								<g id="&lt;Group&gt;">
									<path id="&lt;Path&gt;" class="s6" d="m1235.1 1054.7l38.7-20.8v6l-32.6 17.1v0.2l32.6 17.1v6l-38.7-20.9z" />
									<path id="&lt;Path&gt;" class="s6" d="m1302.5 1020.5h5.6l-23.3 63.3h-5.6z" />
									<path id="&lt;Path&gt;" class="s6" d="m1313.4 1033.9l38.7 20.7v4.9l-38.7 20.8v-6l32.8-17.1v-0.2l-32.8-17.1z" />
								</g>
							</g>
						</g>
						<g id="&lt;Group&gt;">
							<path id="&lt;Path&gt;" class="s12" d="m1487 1400.7v423.8c0 8-6.5 14.5-14.4 14.5h-736.5c-8 0-14.4-6.5-14.4-14.5v-423.8c0-7.9 6.4-14.4 14.4-14.4h736.5c7.9 0 14.4 6.5 14.4 14.4z" />
							<path id="&lt;Path&gt;" class="s6" d="m1464.3 1381.8v423.8c0 7.9-6.5 14.4-14.5 14.4h-736.4c-8 0-14.5-6.5-14.5-14.4v-423.8c0-8 6.5-14.5 14.5-14.5h736.4c8 0 14.5 6.5 14.5 14.5z" />
							<path id="&lt;Path&gt;" class="s5" d="m910.3 1444.5c0 20-16.2 36.2-36.2 36.2c-20 0-36.2-16.2-36.2-36.2c0-20.1 16.2-36.3 36.2-36.3c20 0 36.2 16.2 36.2 36.3z" />
							<path id="&lt;Path&gt;" class="s5" d="m925.9 1506.8v63.3h-102.8v-62.8q11.8-22.4 56-21.5q44.2 0.8 46.8 21z" />
							<path id="&lt;Path&gt;" class="s5" d="m1308.3 1435.4v0.4c0 2.3-1.9 4.2-4.2 4.2h-290.3c-2.3 0-4.2-1.9-4.2-4.2v-0.4c0-2.3 1.9-4.2 4.2-4.2h290.3c2.3 0 4.2 1.9 4.2 4.2z" />
							<path id="&lt;Path&gt;" class="s5" d="m1398.3 1619.2v0.4c0 2.3-1.9 4.2-4.2 4.2h-644.6c-2.4 0-4.2-1.9-4.2-4.2v-0.4c0-2.4 1.8-4.3 4.2-4.3h644.6c2.3 0 4.2 1.9 4.2 4.3z" />
							<path id="&lt;Path&gt;" class="s5" d="m1402.9 1666.4v0.4c0 2.3-1.9 4.2-4.2 4.2h-644.6c-2.3 0-4.2-1.9-4.2-4.2v-0.4c0-2.4 1.9-4.2 4.2-4.2h644.6c2.3 0 4.2 1.8 4.2 4.2z" />
							<path id="&lt;Path&gt;" class="s5" d="m1209.6 1714v0.4c0 2.3-1.9 4.2-4.2 4.2h-453c-2.3 0-4.2-1.9-4.2-4.2v-0.4c0-2.3 1.9-4.2 4.2-4.2h453c2.3 0 4.2 1.9 4.2 4.2z" />
							<path id="&lt;Path&gt;" class="s5" d="m1025.4 1764.2v0.4c0 2.3-1.9 4.2-4.2 4.2h-270.9c-2.3 0-4.2-1.9-4.2-4.2v-0.4c0-2.4 1.9-4.3 4.2-4.3h270.9c2.3 0 4.2 1.9 4.2 4.3z" />
							<path id="&lt;Path&gt;" class="s5" d="m1237.7 1479.7v0.4c0 2.3-1.9 4.2-4.2 4.2h-218.7c-2.3 0-4.2-1.9-4.2-4.2v-0.4c0-2.4 1.9-4.3 4.2-4.3h218.7c2.3 0 4.2 1.9 4.2 4.3z" />
							<path id="&lt;Path&gt;" class="s5" d="m1201.6 1523.9v0.4c0 2.4-1.9 4.2-4.2 4.2h-182.6c-2.3 0-4.2-1.8-4.2-4.2v-0.4c0-2.3 1.9-4.2 4.2-4.2h182.6c2.3 0 4.2 1.9 4.2 4.2z" />
						</g>
						<path id="&lt;Path&gt;" class="s13" d="m3623.5 1094.8v699c0 7.7-6.3 14-14 14h-1043.8c-7.8 0-14-6.3-14-14v-699c0-7.7 6.2-14 14-14h1043.8c7.7 0 14 6.3 14 14z" />
						<g id="&lt;Group&gt;">
							<g id="&lt;Group&gt;">
								<path id="&lt;Path&gt;" class="s14" d="m1727.2 2661.2l1096.8-90v37.9c0 14.1-8.7 26.7-21.8 31.8l-257.4 98.5c-18.4 7.1-37.9 10.1-57.5 9.1l-728-39c-18-1-32.1-15.9-32.1-33.9z" />
								<g id="&lt;Group&gt;">
									<path id="&lt;Path&gt;" class="s15" d="m1946.9 2544.9l877.1 26.3l-307 116.9l-789.8-26.9z" />
									<g id="&lt;Group&gt;">
										<path id="&lt;Path&gt;" class="s6" d="m2599.3 2610.4l72.9 2.4l-43.4 16.2l-7.1 2.7l-43.5 16.2l-7.2 2.7l-57 21.3l-11.4-23.4l-0.9-1.9l-0.6-1l-0.8-1.7l-18.1-37.3l109.1 3.5l7.9 0.3z" />
										<g id="&lt;Group&gt;">
											<g id="&lt;Group&gt;">
												<path id="&lt;Path&gt;" class="s16" d="m2555.1 2626.8l73.7 2.2l-7.1 2.7l-73.8-2.3l-7.9-0.2l-37.9-1.2l0.1-2.8l44.9 1.3z" />
											</g>
											<g id="&lt;Group&gt;">
												<path id="&lt;Path&gt;" class="s16" d="m2504.1 2645.7l74.1 2.2l-7.2 2.7l-68.4-2.1l-0.9-1.9l-1.5 0.5l-0.5-1.6l1.4 0.1z" />
											</g>
											<g id="&lt;Group&gt;">
												<path id="&lt;Path&gt;" class="s16" d="m2591.3 2610.1l7.9 0.3l-44 16.4h-0.1l-7.1 2.6h-0.1l-43.8 16.3l-2.4 0.9l-1.5 0.5l-0.5-1.6l-0.5-1.2l1.1-0.4l39.7-14.7l7.1-2.7l44.2-16.4z" />
											</g>
										</g>
									</g>
								</g>
							</g>
							<g id="&lt;Group&gt;">
								<path id="&lt;Path&gt;" class="s17" d="m2449.8 2213.3l67 479l-789.8-26.9l-67.1-479c-7.2-51.4 28.1-91.7 78.7-89.9l606.4 20.6c50.7 1.7 97.6 44.8 104.8 96.2z" />
								<path id="&lt;Path&gt;" class="s6" d="m2115.6 2451.2c0 31.5-25.4 56.9-56.8 56.9c-31.4 0-56.8-25.4-56.8-56.9c0-31.4 25.4-56.8 56.8-56.8c31.4 0 56.8 25.4 56.8 56.8z" />
							</g>
						</g>
						<g id="&lt;Group&gt;">
							<g id="&lt;Group&gt;">
								<g id="&lt;Group&gt;">
									<path id="&lt;Path&gt;" class="s18" d="m3103.5 1425.9v205.1c0 8.7-7 15.8-15.8 15.8h-333.8c-8.7 0-15.8-7.1-15.8-15.8v-205.1c0-8.7 7.1-15.7 15.8-15.7h333.8c8.8 0 15.8 7 15.8 15.7z" />
								</g>
								<g id="&lt;Group&gt;">
									<path id="&lt;Path&gt;" class="s17" d="m3103.5 1425.9v16.4h-365.4v-16.4c0-8.7 7.1-15.7 15.8-15.7h333.8c8.8 0 15.8 7 15.8 15.7z" />
									<g id="&lt;Group&gt;">
										<path id="&lt;Path&gt;" class="s6" d="m2810.3 1426.2c0 5-4 9-9 9c-5 0-9-4-9-9c0-5 4-9 9-9c5 0 9 4 9 9z" />
										<path id="&lt;Path&gt;" class="s19" d="m2786.8 1426.2c0 5-4 9-9 9c-4.9 0-9-4-9-9c0-5 4.1-9 9-9c5 0 9 4 9 9z" />
										<path id="&lt;Path&gt;" class="s14" d="m2762.8 1426.2c0 5-4.1 9-9 9c-5 0-9-4-9-9c0-5 4-9 9-9c4.9 0 9 4 9 9z" />
									</g>
								</g>
							</g>
							<g id="&lt;Group&gt;">
								<path id="&lt;Path&gt;" class="s6" d="m2803.7 1541.9c0 21.7 12.5 35.7 34 35.7c7 0 14.1-1.5 18.7-3.7l2.4 9.1c-4.2 2.1-12.6 4.2-23.4 4.2c-25 0-43.8-15.8-43.8-44.9c0-27.8 18.8-46.6 46.3-46.6c11 0 18 2.3 21 3.9l-2.7 9.4c-4.4-2.1-10.6-3.7-17.9-3.7c-20.8 0-34.6 13.3-34.6 36.6z" />
								<path id="&lt;Path&gt;" class="s6" d="m2906.5 1546.8h29.8v7.9h-29.8v31.2h-8.4v-31.2h-29.7v-7.9h29.7v-31h8.4z" />
								<path id="&lt;Path&gt;" class="s6" d="m2984.9 1546.8h29.8v7.9h-29.8v31.2h-8.4v-31.2h-29.7v-7.9h29.7v-31h8.4z" />
							</g>
						</g>
						<g id="&lt;Group&gt;">
							<g id="&lt;Group&gt;">
								<g id="&lt;Group&gt;">
									<path id="&lt;Path&gt;" class="s18" d="m3828 1047v217.3c0 9.3-7.5 16.8-16.7 16.8h-353.9c-9.2 0-16.7-7.5-16.7-16.8v-217.3c0-9.2 7.5-16.7 16.7-16.7h353.9c9.2 0 16.7 7.5 16.7 16.7z" />
								</g>
								<g id="&lt;Group&gt;">
									<path id="&lt;Path&gt;" class="s17" d="m3828 1047v17.3h-387.3v-17.3c0-9.2 7.5-16.7 16.7-16.7h353.9c9.2 0 16.7 7.5 16.7 16.7z" />
									<g id="&lt;Group&gt;">
										<path id="&lt;Path&gt;" class="s6" d="m3517.2 1047.3c0 5.3-4.3 9.6-9.5 9.6c-5.3 0-9.6-4.3-9.6-9.6c0-5.3 4.3-9.5 9.6-9.5c5.2 0 9.5 4.2 9.5 9.5z" />
										<path id="&lt;Path&gt;" class="s19" d="m3492.3 1047.3c0 5.3-4.2 9.6-9.5 9.6c-5.3 0-9.5-4.3-9.5-9.6c0-5.3 4.2-9.5 9.5-9.5c5.3 0 9.5 4.2 9.5 9.5z" />
										<path id="&lt;Path&gt;" class="s14" d="m3466.8 1047.3c0 5.3-4.2 9.6-9.5 9.6c-5.3 0-9.5-4.3-9.5-9.6c0-5.3 4.2-9.5 9.5-9.5c5.3 0 9.5 4.2 9.5 9.5z" />
									</g>
								</g>
							</g>
							<g id="&lt;Group&gt;">
								<path id="&lt;Path&gt;" class="s6" d="m3554.8 1133.5h9.5v72.4h-9.5v-34h-34.9v34h-9.4v-72.4h9.4v30.3h34.9z" />
								<path id="&lt;Path&gt;" class="s6" d="m3572.2 1133.5h53.5v7.9h-22v64.5h-9.5v-64.5h-22z" />
								<path id="&lt;Path&gt;" class="s6" d="m3701.1 1133.5l4.6 72.4h-9.2l-1.8-31.8c-0.5-10.1-1.2-22.2-1.1-31.3h-0.3c-2.4 8.5-5.4 17.5-9.1 27.5l-12.8 35.1h-7l-11.7-34.4c-3.5-10.2-6.4-19.6-8.4-28.2h-0.2c-0.2 9.1-0.8 21.2-1.4 32l-1.9 31.1h-8.9l5-72.4h11.9l12.3 35c3 8.9 5.5 16.9 7.3 24.4h0.4c1.8-7.3 4.4-15.3 7.6-24.4l12.8-35z" />
								<path id="&lt;Path&gt;" class="s6" d="m3729.4 1198h30.9v7.9h-40.3v-72.4h9.4z" />
							</g>
						</g>
						<path id="&lt;Compound Path&gt;" fill-rule="evenodd" class="s3" d="m3864.4 1752.4l-16.2 45.3c-4.4 12.3-17.9 18.7-30.1 14.3l-23.7-8.5c-9.9-3.5-20.9-0.1-27 8.5c-11.6 16.6-25.2 31.5-40.2 44.4c-8 6.9-10.3 18.3-5.8 27.8l10.8 22.7c5.5 11.8 0.5 25.9-11.3 31.5l-43.4 20.6c-11.8 5.5-25.9 0.5-31.4-11.3l-10.7-22.7c-4.6-9.5-14.8-15-25.2-13.1c-19.5 3.4-39.6 4.5-59.8 2.9c-10.5-0.8-20.2 5.7-23.7 15.6l-8.4 23.6c-4.4 12.3-17.9 18.7-30.2 14.3l-45.3-16.2c-12.2-4.4-18.6-17.9-14.2-30.2l8.4-23.6c3.6-9.9 0.2-21-8.4-27.1c-16.6-11.6-31.5-25.2-44.4-40.2c-6.9-8-18.2-10.3-27.7-5.8l-22.7 10.7c-11.8 5.6-25.9 0.6-31.5-11.2l-20.5-43.5c-5.6-11.8-0.6-25.9 11.2-31.5l22.7-10.7c9.5-4.5 14.9-14.8 13.1-25.2c-3.4-19.6-4.5-39.7-2.9-59.9c0.7-10.5-5.6-20.1-15.5-23.7l-23.7-8.5c-12.3-4.3-18.7-17.8-14.3-30.1l16.2-45.4c4.4-12.2 17.9-18.6 30.2-14.2l23.6 8.4c9.9 3.6 21 0.2 27-8.4c11.7-16.7 25.2-31.5 40.2-44.5c8-6.9 10.3-18.3 5.8-27.7l-10.7-22.8c-5.6-11.8-0.6-25.9 11.2-31.4l43.5-20.6c11.7-5.6 25.8-0.5 31.4 11.2l10.7 22.8c4.5 9.5 14.8 14.9 25.1 13.1c19.6-3.5 39.6-4.5 59.9-3c10.4 0.8 20.1-5.6 23.6-15.5l8.5-23.7c4.3-12.3 17.8-18.6 30.1-14.3l45.3 16.2c12.2 4.4 18.6 17.9 14.3 30.2l-8.5 23.7c-3.5 9.9-0.1 21 8.5 27c16.6 11.7 31.4 25.2 44.3 40.3c6.9 8 18.3 10.3 27.8 5.8l22.7-10.8c11.8-5.6 25.8-0.5 31.4 11.3l20.6 43.5c5.5 11.8 0.5 25.8-11.3 31.4l-22.7 10.8c-9.5 4.5-14.9 14.8-13.1 25.1c3.4 19.6 4.5 39.7 3 59.9c-0.8 10.5 5.6 20.2 15.5 23.7l23.6 8.5c12.3 4.4 18.7 17.9 14.3 30.2zm-231.9-194.3c-79.1-43.9-176.4 2.2-192.7 91.3c-9.9 54 16.5 109.9 64.5 136.5c79.1 43.9 176.4-2.3 192.7-91.4c9.9-54-16.5-109.8-64.5-136.4z" />
						<g id="&lt;Group&gt;">
							<path id="&lt;Path&gt;" class="s20" d="m3803.1 2132.9q0 229.4-200.5 277.2v124.2l-811.5-3.8q-9.6-51.6 15.3-263.8q-200.5 151-294.1-23q-120.3-225.5 82.1-464.5l149 7.6q169.9-219.8 357-225.6l213.9 5.8c276.8 51.6 488.8 336.5 488.8 565.9z" />
							<path id="&lt;Path&gt;" class="s6" d="m3194 1674l-74.5 74.6q-74.5 13.4-82.1-179.7l63-7.7q0 84.2 93.6 112.8z" />
							<path id="&lt;Path&gt;" class="s6" d="m3314.3 1567l68.7 15.3c-3.8 168.2-105 185.4-127.9 185.4q-22.9 0-51.6-95.6q99.3 0 110.8-105.1z" />
							<path id="&lt;Path&gt;" class="s21" d="m3498.7 1954.4l19.9 172.7l-173.8-19.1q34.4-3.8 108.9-49.7c33.9-20.9 44-63.6 45-103.9z" />
							<path id="&lt;Path&gt;" class="s21" d="m3488 1861.4l10.7 93q1.2-48.2-10.7-93z" />
							<path id="&lt;Path&gt;" class="s22" d="m3111.9 2308.7q102.4-57.3 40.1-221.7q-93 122.3-40.1 221.7z" />
							<path id="&lt;Path&gt;" class="s23" d="m2724.3 2310.3l-0.1 2c-64.1-3.8-113.2-26.8-145.8-68.5c-65.9-84-42.5-216.9-42.3-218.2l2.1 0.4c-0.3 1.3-23.5 133.2 41.8 216.5c32.3 41.2 80.9 64 144.3 67.8z" />
							<path id="&lt;Path&gt;" class="s23" d="m3039.7 1609.3l0.5 2c-0.4 0.1-48.3 14.1-106.4 47.4c-53.6 30.8-127.1 84.8-173 167.5l-1.8-1c46.1-83.2 120-137.4 173.8-168.3c58.3-33.5 106.4-47.4 106.9-47.6z" />
							<path id="&lt;Path&gt;" class="s21" d="m2898.6 1777.3q-28 107-24.1 137.6q-10.2-40.8-24.2-53.5z" />
							<path id="&lt;Path&gt;" class="s23" d="m3117.6 2312.6l487.5 75.2l-5.1 118.5q-301.6 34.4-482.4-193.7z" />
							<path id="&lt;Path&gt;" class="s20" d="m3789.7 2016.2q85.9 327-187.1 393.9q-311.2 40.1-490.7-101.4q99.3-70.7 40.1-221.7l366.6 40.1l-57.3-510.4q250.1 130 328.4 399.5z" />
							<path id="&lt;Path&gt;" class="s23" d="m3680.1 1906.4c35.5 79.1 52.2 168.2 49.5 264.7c-0.1 1.1-15.9 98.2-108.2 149.5c-38.1 21.1-83.3 31.6-135.2 31.6c-75.7 0-165.9-22.4-269.7-67.4l0.8-1.9c103.5 44.8 193.5 67.3 268.9 67.3c51.6 0 96.4-10.5 134.2-31.5c91.4-50.7 107-146.8 107.2-147.8c5.9-217.7-88.7-355.5-169.2-432.8c-87.1-83.7-176.8-116.3-177.7-116.6l0.7-2c0.9 0.4 91 33.1 178.5 117.1c51.3 49.4 91.8 106.5 120.2 169.8z" />
							<path id="&lt;Path&gt;" class="s24" d="m3314.3 1567c4.2 29.4-46.1 125.1-127.3 105.2q-81.3-19.8-86.2-81.4l178.6-37.6z" />
							<path id="&lt;Path&gt;" class="s24" d="m2723.9 1784.9q2.4 31.1-63.2 40.2q-65.7 9.1-65.7-43.8l1.8-41.4q-23 4.3-44.3-26.8c-21.9-0.6-57.7-63.8-64.4-76q-6.7-12.2 11.5-51.7q3.7-27.4 8.5-50.5q4.9-23.1 21.3-27.4q3.6-11.6 10.9-22.5c7.3-11 27.4-17.7 37.7-20.1q10.3-2.4 49.2 35.9q34.1 25.6 61.4 54.2q27.4 28.6 31.6 49.8z" />
							<path id="&lt;Path&gt;" class="s25" d="m2568.1 1563.5l30.8 31.1c-9.7-21.8-30.6-31-30.8-31.1z" />
							<path id="&lt;Path&gt;" class="s25" d="m2605.4 1601.3c3 10.7 2.8 18.5-0.5 23.7c-3.5 5.5-9.5 6.4-13 7c-0.7 0.1-1.4 0.2-1.8 0.3q-0.4 0.1-0.8 0.1c-3 0-8.6-4.4-24.4-18.1c-9.6-8.4-19.5-16.9-25.6-20.5c-13.9-8.3-12.7-71.8-12.5-79.1l4 0.2c-0.8 27.4 1.5 70.1 10.5 75.5c6.4 3.7 16.4 12.4 26.2 20.9c8.1 7 19.1 16.6 21.7 17.1q0.9-0.2 2.1-0.3c3-0.5 7.7-1.3 10.3-5.2c2.6-4.2 2.6-11.1 0-20.6q-1.1-4.1-2.7-7.7z" />
							<path id="&lt;Path&gt;" class="s25" d="m2584.4 1621.8c11.8 14.3 12.4 24.8 10.8 31.1c-1.4 5.9-5.1 9.2-7.9 10.4q-0.8 0.3-1.9 0.3c-6.6 0-22.9-7.8-46.2-19.2c-6.8-3.3-13.2-6.4-17.9-8.5q-13.4-0.9-24.8-43.5l3.9-0.7c0 0.4 6.1 33.2 22.5 40.5c4.8 2.2 11.2 5.3 18 8.7c15.4 7.5 41 20 44.9 18.7c2-0.8 4.6-3.5 5.6-7.7c1.1-4.4 1.3-13.9-10-27.5z" />
							<path id="&lt;Path&gt;" class="s25" d="m2579.2 1659.5c5.9 14.4-0.9 17.5-8.2 20.8l-1.3 0.6c-1.7 0.8-3.1 1.1-4.5 1.1c-2.7 0-5.1-1.4-9-3.6c-5.2-2.9-13-7.3-28.1-12.7c-33-11.8-35.2-28.3-35.3-29l3.9-0.5c0 0.2 2.4 14.9 32.8 25.8c15.4 5.5 23.7 10.2 28.6 13c5.7 3.2 6.8 3.7 10 2.3l1.3-0.6l6.2-15.7z" />
							<path id="&lt;Path&gt;" class="s25" d="m2550.9 1670.3c9.2 12.7 12.5 23.5 9.9 32c-2.5 8.3-9.9 11.2-10.2 11.3l-1.5-3.9q16.2-12.2-1.5-37z" />
							<path id="&lt;Path&gt;" class="s26" d="m2726.1 1433.5l-185.5 241.7l-47 34.9l22.7-55.2l185.5-238.5q6.1-11 19.8-4q13.7 7 4.5 21.1z" />
							<path id="&lt;Path&gt;" class="s24" d="m2644.2 1514.2l55.3 63.3l-75.3 93.1q-9.1-44.5 19.4-76.1l-22.4-44.4c-17.7-7.3-38.9-25.6-43.8-53.6q-4.9-27.9 24.9-17z" />
							<path id="&lt;Compound Path&gt;" fill-rule="evenodd" class="s25" d="m2655.8 1725.2q1.2 3-0.7 3.9c-0.3 0.2-0.6 0.3-1 0.3c-1.9 0-5.7-4.4-24.9-36.5q-28.1-46.9 12.1-98.6l-19.1-40c-4.8-1.1-24.2-7.5-41.1-43.5c-6.6-14.1-7.5-24.6-2.7-31.2c6.5-8.8 20.6-7 21.2-6.9l-0.6 3.9c-0.1 0-12.3-1.6-17.4 5.4c-3.8 5.2-2.8 14.6 3.1 27.1c18.1 38.7 38.9 41.4 39.1 41.5l1.1 0.1l21.1 44.1l-0.8 0.9c-0.4 0.5-39.5 50.6-12.6 95.1c17.3 28.7 21.4 33.8 22.3 34.7zm-0.9 0.4c-0.2-0.1-0.4-0.2-0.7-0.2c-0.3 0-0.6 0.1-1 0.3c-0.4 0.2-0.6 0.6-0.7 0.9z" />
							<path id="&lt;Path&gt;" class="s18" d="m3023.4 2273.1q12.7 39.5-29.3 43.3q-42 3.8-320.8-84.1q-28-8.9-52.2-57.4q-24.1-48.4-197.3-336.4q-19.1-31.9 21.7-52.3l352.6 45.9q47.1 3.8 72.5 62.4q25.5 58.7 152.8 378.6z" />
							<path id="&lt;Path&gt;" class="s27" d="m2531.6 1911.6c3.2 5.5 1.3 12.6-4.2 15.8l-0.9 0.5c-5.5 3.2-12.6 1.3-15.8-4.2l-40.6-70.5c-3.2-5.5-1.3-12.6 4.2-15.8l0.9-0.5c5.6-3.2 12.6-1.3 15.8 4.2z" />
							<path id="&lt;Path&gt;" class="s28" d="m3023.4 2273.1q12.7 39.5-29.3 43.3q-42 3.8-320.8-84.1q-28-8.9-52.2-57.4c-12.4-24.9-64.4-113.4-111.8-193.4c21.8 27.5 143.1 171.8 301.9 184.1q175.7 13.6 163-14.5q0.2 0 0.5 0q27.2 67.8 48.7 122z" />
							<g id="&lt;Group&gt;">
								<path id="&lt;Path&gt;" class="s24" d="m3152 2087q50.5 66.7-3.9 179.7l-86.5-29.8q-183.3 1.7-207.1 1.7q-23.7 0-39-17.8q-57.7-55.2-65.4-71.4q-7.6-16.1 3.4-17.8q-14.4-9.4-22.9-21.3q-8.5-11.8 6.8-20.3q-15.3-22.1 11-24.7q-8.4-19.5 21.3-22.1q29.7-2.5 84.4 20.8h86.6l-26.8-59.9q64.9 3.9 145.1 75.2z" />
								<path id="&lt;Path&gt;" class="s29" d="m2855.6 2108.9c12.9 0.9 68.8 1.7 69.4 1.7l-0.1 6.3c-2.3-0.1-56.6-0.9-69.7-1.8c-12.7-0.8-19.8-7.1-21.3-8.7c-47.5-30.5-85.6-38-86-38l1.1-6.1c1.6 0.3 39.8 7.7 88.5 39.1l0.4 0.2l0.3 0.3c0.2 0.3 5.8 6.3 17.4 7z" />
								<path id="&lt;Path&gt;" class="s29" d="m2833.5 2145.7c7.2 2.6 60.2 5.1 94.1 6.2l-0.2 6.2c-8.7-0.3-85.7-2.7-96-6.6c-10.4-3.9-86.5-54.3-89.8-56.4l3.5-5.2c21.8 14.5 80.4 52.7 88.4 55.8z" />
								<path id="&lt;Path&gt;" class="s29" d="m2832.7 2189.7c13.5 2.9 85.6 2.9 86.3 2.9v6.2c-3 0-73.5 0-87.6-3c-14.4-3.1-71.4-55.1-77.8-61.1l4.2-4.5c24.8 22.8 65.2 57.5 74.9 59.5z" />
								<path id="&lt;Path&gt;" class="s25" d="m3152 2087q50.2 80.3-1.9 181l-67.5-24.3q101.2-49 69.4-156.7z" />
							</g>
							<path id="&lt;Path&gt;" class="s6" d="m3220.7 2094.6q78.3 154.9-57.3 246.6l-51.5-32.5q89.7-53.5 40.1-221.7z" />
						</g>
						<g id="&lt;Group&gt;">
							<g id="&lt;Group&gt;">
								<path id="&lt;Path&gt;" class="s20" d="m1262.2 1978.7c23.8 45.8 23.2 99.4 16.9 149.3c-3.1 24.7-5 47.8-14.8 71c-10 23.6-24 45.3-39.7 65.4c-5.7 7.2-64 67.1-58.7 72.3c-23.1-22.3-53.8-44.4-69.3-72.5c-15.7-28.7-26.7-57.8-21-91.2c5.2-29.5 22-55.3 34.4-82.5c12.4-27.2 20.4-59.5 7.5-86.5c-4.2-8.8-10.4-16.4-15.8-24.6c-7.2-11.1-12.9-23.3-16.5-36c2.2 0.6 4.5 1 6.9 1c10.6 0 19.2-6.5 19.2-14.6c0-8-8.6-14.5-19.2-14.5c-4.2 0-8 1-11.2 2.8q-0.1-2.8-0.1-5.6c-0.1-23.8 15.4-43.1 15.8-65.7c0.3-23-6.1-45.1 7.5-66.2c12.8-19.8 39.7-27.8 62.5-21.6c55.4 14.9 71.1 85.6 71.7 134.8c0.1 13.7-0.9 27.6 2.5 40.9c2.7 10.9 8.3 20.8 14 30.6c2.5 4.4 5.1 8.9 7.4 13.4z" />
								<g id="&lt;Group&gt;">
									<g id="&lt;Group&gt;" style="opacity: .2;mix-blend-mode: multiply">
										<path id="&lt;Path&gt;" class="s30" d="m1262.2 1978.7c23.8 45.8 23.2 99.4 16.9 149.3c-3.1 24.7-5 47.8-14.8 71c-10 23.6-24 45.3-39.7 65.4c-5.7 7.2-64 67.1-58.7 72.3c-5.8-5.6-12.1-11.2-18.5-16.8c14.6-30.8 31.8-60.6 45.6-91.8c32.2-73.2 27.3-144.4-6.3-215.9c-10.8-23.1-23.1-46.5-24-72c-0.7-21.3 6.7-42 8-63.3c2.7-41.6-17.7-80.7-38-117.2c10.9-3.4 22.9-3.7 33.9-0.7c55.4 14.9 71.1 85.6 71.7 134.8c0.1 13.7-0.9 27.6 2.5 40.9c2.7 10.9 8.3 20.8 14 30.6c2.5 4.4 5.1 8.9 7.4 13.4z" />
									</g>
									<g id="&lt;Group&gt;">
										<g id="&lt;Group&gt;">
											<path id="&lt;Path&gt;" class="s26" d="m1185.9 2420.4c0.6 5-7.2 4.9-7.8 0c-6.2-53.2-25-103.6-33.8-156.2c-7.7-45.9-4.9-88.5 8.3-133c15.3-51.7 26.2-99.9 22.8-154.2c-3.3-53.5-9.2-107.3-22.1-159.4c-1.2-4.9 6.4-7 7.6-2.1c12.4 50.4 18.6 102.5 21.9 154.3c3.3 52.6-3.3 99.4-18.6 149.8c-8 26.6-16.3 53.9-17 81.9c-0.8 27.3 2.7 54.4 8.7 81c10.2 46 24.5 91 30 137.9z" />
										</g>
										<g id="&lt;Group&gt;">
											<path id="&lt;Path&gt;" class="s26" d="m1145.1 2257.6c44.7-27.8 87.7-58.4 128.7-91.3q-0.5 2.9-1.2 5.9c-39.7 31.7-81.2 61.1-124.3 88c0.4 1.5-1.1 3.3-2.8 2.3q-0.4-0.2-0.7-0.5c-0.7 0-1.2-0.4-1.6-0.9c-22.7-13.5-44.6-28.1-65.9-43.8q-0.7-2.9-1.2-5.8c22.2 16.6 45.2 32 69 46.1z" />
											<path id="&lt;Path&gt;" class="s26" d="m1141.8 2178.8q-27.6-20.2-55.1-40.4q0.7-1.8 1.6-3.6q27.7 20.3 55.5 40.6c2 1.5 0 4.9-2 3.4z" />
											<path id="&lt;Path&gt;" class="s26" d="m1145.6 2174.3c44-32.7 89.8-62.9 137.1-90.5q-0.1 2.3-0.2 4.6c-46.5 27.3-91.6 57.1-135 89.2c-2 1.5-3.9-1.9-1.9-3.3z" />
											<path id="&lt;Path&gt;" class="s26" d="m1275.9 2014.7c0.3 1.3 0.6 2.7 0.9 4.1c-35.8 24.9-71.4 50.2-106.5 76.2c-0.7 0.5-1.4 0.4-1.9 0c0.1 1.5-1.3 3.1-2.8 2q-22.7-17.2-45.5-34.3q0.6-2 1.1-4.1q23.1 17.5 46.3 35c-0.1-0.7 0.1-1.5 0.8-2c35.5-26.2 71.4-51.8 107.6-76.9z" />
											<path id="&lt;Path&gt;" class="s26" d="m1247.2 1951.4q0.9 1.8 1.8 3.6c-22.9 20.1-45.5 40.6-67.8 61.4c-0.1 0.1-0.3 0.1-0.4 0.2c-0.3 1.1-1.5 2-2.8 1.3c-28.6-14.5-56.1-30.9-82.5-49.1q-1.8-3.6-3.5-7.2c27.5 19.4 56.3 36.8 86.4 52.1q0 0 0-0.1c22.6-21.1 45.5-41.8 68.8-62.2z" />
											<path id="&lt;Path&gt;" class="s26" d="m1236.2 1864.2q0.3 2.5 0.6 4.9q-30 29.7-59.9 59.4c0.9 1.4-0.8 3.7-2.7 2.8q-0.1 0-0.1 0c-1.3 1-3-0.1-3.1-1.4q-43.5-18.9-86.9-37.9q0.6-1.9 1.2-3.7q44 19.2 87.9 38.4q31.5-31.3 63-62.5z" />
											<path id="&lt;Path&gt;" class="s26" d="m1207.9 1787.3q1.3 1.6 2.4 3.2c-15.4 17.1-30.4 34.6-44.7 52.6c-0.1 0.1-0.1 0.1-0.2 0.2c-0.3 0.8-1.1 1.5-2.2 1q-33.9-12.6-67.8-25.2q0-2.1 0-4.1q33.8 12.5 67.6 25.1c14.4-18.1 29.4-35.6 44.9-52.8z" />
										</g>
									</g>
								</g>
							</g>
							<g id="&lt;Group&gt;">
								<path id="&lt;Path&gt;" class="s20" d="m1065.8 2336.6c1.1 27.4-11.5 57.1-18.4 83.7c1.6-6.2-67.6-24-75-26.7c-20.3-7.7-40.2-17.4-57.9-30.1c-17.5-12.6-29.1-28.6-42.3-45.3c-23-28.9-44-61.6-51.4-98.1q1.1 0 2.3 0c13.6 0 24.7-5.7 24.7-12.8c0-7-11.1-12.8-24.7-12.8q-2.7 0-5.1 0.3q-0.1-3.1-0.2-6.2c-0.2-9.7-0.5-19.4-3.3-28.6c-3.5-11.1-10.4-20.9-16.3-30.9c-21.5-36.2-41.3-94.8-7.5-130.3c13.9-14.6 37.1-20.8 55.2-12c17 8.2 23 24 31.4 39c-3.3 2-6.3 5.5-8.3 9.8c-4.2 9.1-2.6 18.8 3.7 21.7c6.2 2.9 14.6-2.2 18.8-11.2q0.4-0.8 0.7-1.5c10 8.8 21.9 15.9 29.2 28.1c10.5 17.3 15.1 38 14.4 58.2c-0.3 8.3-1.4 16.7-0.6 25c2.5 25.4 22.7 45.5 43.8 59.8c21.1 14.3 44.9 25.7 61.7 44.9c19 21.9 23.9 48 25.1 76z" />
								<g id="&lt;Group&gt;">
									<g id="&lt;Group&gt;">
										<path id="&lt;Path&gt;" class="s26" d="m1075.6 2486.8c1.7 3.9-4 7.4-5.7 3.5c-16.8-36.7-26.3-75.9-39.2-114c-7.5-22.2-17-43.4-29.6-63.1c-13-20.1-31.1-36.3-48.8-52.2c-33.4-30-59-61.2-80-101.1c-20.5-39.2-39.1-80.1-52.4-122.4c-1.2-4.1 5.2-5.9 6.5-1.8c13.7 43.8 33.2 85.6 54.5 126.2c21.6 41.2 51 71.5 85 102.4c29.5 26.7 50.3 56.5 65.1 93.4c16.9 42.4 25.5 87.5 44.6 129.1z" />
									</g>
									<g id="&lt;Group&gt;">
										<path id="&lt;Path&gt;" class="s26" d="m1057.4 2288.9q0.9 2.4 1.7 4.8c-8.6 20.9-18.1 41.4-28.7 61.3c0 0.6-0.3 1.1-0.7 1.4q-0.2 0.3-0.3 0.6c-0.8 1.5-2.8 0.8-3.1-0.4c-43.4-0.5-86.7-3.5-129.8-9q-1.8-1.9-3.5-3.8c44.6 5.8 89.5 9 134.5 9.5c11.1-20.9 21.1-42.4 29.9-64.4z" />
										<path id="&lt;Path&gt;" class="s26" d="m1014.5 2238.4q1.4 0.9 2.8 1.9q-11.2 27-22.4 54c-0.8 2-3.7 0.4-2.9-1.6q11.3-27.2 22.5-54.3z" />
										<path id="&lt;Path&gt;" class="s26" d="m990.3 2296c-46-4.2-92.1-5.9-138.2-5.2q-1.1-1.6-2.1-3.3c46.8-0.8 93.6 0.9 140.2 5.1c2.1 0.2 2.2 3.6 0.1 3.4z" />
										<path id="&lt;Path&gt;" class="s26" d="m956.7 2197.4q1.3 1.3 2.6 2.5q-9 22.6-18 45.2c-0.6 1.5-2.4 1-2.9-0.2c-0.2 0.5-0.7 0.9-1.4 0.8c-37.2-3.3-74.4-6-111.6-8.2c-0.4-1.2-0.8-2.3-1.1-3.5c37.6 2.3 75.1 5 112.6 8.4c0.8 0 1.3 0.5 1.5 1.1q9.2-23.1 18.3-46.1z" />
										<path id="&lt;Path&gt;" class="s26" d="m935 2113.6q0.4 3.4 0.6 6.8c-11.1 25-23.9 49.2-38.4 72.5c-0.7 1.1-1.9 0.9-2.7 0.3c-0.1 0-0.2 0-0.3 0c-25.5-5.3-51.1-10.2-76.8-14.7q-0.1-1.7-0.2-3.4c26 4.6 51.9 9.5 77.8 14.9q0 0 0.1 0c15.1-24.5 28.5-50 39.9-76.4z" />
										<path id="&lt;Path&gt;" class="s26" d="m909.9 2059.2q-23.3 33.2-46.6 66.3c0.5 1.1-0.3 2.6-1.7 2.4q0 0 0 0.1c-1.1 1.5-3.3 0.5-3.2-0.8q-35.1-8.4-70.1-16.8q-0.9-1.9-1.7-3.9q36.8 8.9 73.6 17.7q23.6-33.6 47.2-67.1q1.3 1 2.5 2.1z" />
										<path id="&lt;Path&gt;" class="s26" d="m867.5 2008q0.9 1.5 1.8 3.1q-19.1 24.3-38.3 48.5c-0.6 0.8-1.5 0.7-2.1 0.2c0 0-0.1 0-0.2 0c-18.4-6.8-37.1-12.9-55.9-18.5q0.1-1.7 0.3-3.4q28.4 8.4 56.2 18.5q19.1-24.2 38.2-48.4z" />
									</g>
								</g>
							</g>
							<path id="&lt;Path&gt;" class="s23" d="m1181.5 2222.2c3.5 24.6-1 53.7-9.8 76.8c-6 15.8-15.4 29.9-23 44.9c-7.6 15-13.6 31.6-11.9 48.4c-43.2-41.9-123.2-66.9-154.5-121.9c2.7 1.1 5.8 1.8 9.2 1.8c10.1 0 18.3-6.1 18.3-13.6c0-7.6-8.2-13.7-18.3-13.7c-7.6 0-14.1 3.4-16.9 8.4q-1.9-5.6-3.2-11.7c-2.4-11.4-2.8-23.1-3.2-34.8c-0.8-23.3 3.4-47.8-11.6-67c-8.8-11.3-20-20.5-30-30.8c-23.3-24-32.7-74.7-17.9-104.9c7.8-16 19.4-30.4 23.8-47.7c9.1-35.5-14.5-72.5-8.8-108.7c2.5-15.2 9.8-30.2 22-40c13.9-11.3 31.1-5.3 45.3 3.4c23.9 14.7 42.6 37.7 52 64.2c8.2 23 9.9 48.8 23.7 68.9c7.4 10.7 17.8 18.9 25.6 29.3c22.1 29.6 9.7 59.7 14.9 92.5c2.2 14.1 10.8 24.6 20.2 34.8c14.4 15.6 28.4 31.4 38.3 50.4c5.8 11.1 8.9 22.3 10.9 33.7c2.1 12.1 3.1 24.5 4.9 37.3z" />
							<g id="&lt;Group&gt;">
								<g id="&lt;Group&gt;">
									<g id="&lt;Group&gt;">
										<path id="&lt;Path&gt;" class="s26" d="m1163.3 2461.9c0.9 5-6.8 6.2-7.7 1.3c-10.5-55.1-33.6-106.8-63.9-153.8c-25.2-39.2-50.7-75.6-55-123.5c-4.7-52-1.6-104-10.4-155.8c-8.9-52.5-27.4-100.5-49.4-148.6c-2.1-4.6 5-7.9 7.1-3.3c21.1 46.2 40.2 92.9 48.7 143.2c4.7 27.3 7.8 54.8 9 82.4c1.2 26.8-0.5 54.1 2.7 80.8c6.8 57.2 41.3 96.6 68.5 144.9c23.5 41.6 41.5 85.4 50.4 132.4z" />
									</g>
									<g id="&lt;Group&gt;">
										<path id="&lt;Path&gt;" class="s26" d="m1180.7 2216c-26.8 32.2-54.3 63.8-82.6 94.6c0.9 1.2 0.2 3.4-1.7 3.1q-0.6-0.1-1.3-0.3c-0.7 0.3-1.6 0.1-2.1-0.4c-30.8-5.8-61.6-11.9-92.3-18.3q-2.3-2.5-4.5-5c32.5 6.9 65.1 13.4 97.8 19.6c29.6-32.1 58.2-65 86-98.6q0.3 2.7 0.7 5.3z" />
										<path id="&lt;Path&gt;" class="s26" d="m1137.9 2112.5q1.3 1.5 2.6 2.9c-11.5 13.7-23.7 26.7-35.3 40.4q-29.5 34.8-54.9 72.8c-0.9 1.3-2.5 0.9-3.2-0.1c-19.9-1-39.9-5.5-59.6-8.4q-9.4-1.4-18.9-2.8q-0.1-2-0.1-4q9.7 1.5 19.4 2.9c19.9 3 40.2 7.5 60.4 8.4c16.6-24.6 34.4-48.5 53.8-71.1c11.7-13.8 24.2-27.1 35.8-41z" />
										<path id="&lt;Path&gt;" class="s26" d="m1107 2065.1q-33.1 46.4-67.7 91.6c0.1 1.1-0.5 2.2-1.7 2.2q-0.1 0.1-0.2 0.3c-1.2 1.5-3.4 0.5-3.6-0.9q-37-6.9-73.9-13.7c-1-1.5-2-3.1-3.1-4.5q39.6 7.3 79.1 14.6q36.1-47 70.5-95.3q0.2 2.9 0.6 5.7z" />
										<path id="&lt;Path&gt;" class="s26" d="m1093.8 1975.8c-20.8 29.8-40.2 60.4-58.2 92q0.3 0.1 0.5 0.1c2.5 0.5 2.1 4.4-0.4 3.9q-66.6-12.2-133.5-22.3q-0.2-2-0.3-4q65 9.8 129.7 21.6c18.4-32.5 38.3-64.1 59.8-94.6q0.4 0.5 0.9 1c0.5 0.8 1 1.6 1.5 2.3z" />
										<path id="&lt;Path&gt;" class="s26" d="m1057.4 1925.6q0.8 2.2 1.7 4.3c-12 17.5-24.5 34.5-37.7 51.1q-0.2 0.5-0.7 0.8c-0.7 0.6-1.5 0.6-2.1 0.2c-30.6-2.4-61.1-6.3-91.3-11.6q0.9-1.8 1.7-3.7c29.7 5.2 59.6 9 89.7 11.4q20.3-25.6 38.7-52.5z" />
										<path id="&lt;Path&gt;" class="s26" d="m1020.9 1837q1.4 1.6 2.7 3.2c-10.7 20.2-21 40.4-31 60.9c-0.7 1.6-2.6 1.4-3.4 0.4c-21.1-4.2-42.1-8.8-63-13.8q-0.4-2.1-0.8-4.2c21.4 5.1 43 9.9 64.6 14.2c9.9-20.4 20.3-40.7 30.9-60.7z" />
									</g>
								</g>
								<g id="&lt;Group&gt;" style="opacity: .2;mix-blend-mode: multiply">
									<path id="&lt;Path&gt;" class="s26" d="m1181.5 2222.2c3.5 24.6-1 53.7-9.8 76.8c-6 15.8-15.4 29.9-23 44.9c-7.6 15-13.6 31.6-11.9 48.4q-2.7-2.6-5.6-5.1c10.5-32.6 11.4-68.6 4-102.2c-10.8-49.4-37.8-94.1-70.8-132.4c-24.8-28.9-54.6-57.5-60-95.2c-2.9-19.6 1.4-39.5 2.6-59.3c1.7-28.7-3.2-57.8-14.2-84.3c-12.8-30.7-33.3-57.1-52.4-84c-2-2.8-4.2-5.8-6.4-9c3.2-4.9 7.1-9.4 11.7-13.1c13.9-11.3 31.1-5.3 45.3 3.4c23.9 14.7 42.6 37.7 52 64.2c8.2 23 9.9 48.8 23.7 68.9c7.4 10.6 17.8 18.9 25.6 29.3c22.1 29.6 9.7 59.7 14.9 92.5c2.2 14.1 10.8 24.6 20.2 34.8c14.4 15.6 28.4 31.4 38.3 50.4c5.8 11.1 8.9 22.3 10.9 33.7c2.1 12.1 3.1 24.5 4.9 37.3z" />
								</g>
							</g>
							<g id="&lt;Group&gt;">
								<path id="&lt;Path&gt;" class="s23" d="m1427.1 2098.3c3.6 19.5 14.6 37.3 16.5 57.1c2.6 26.2-13.5 53.6-32.6 70.4c-9.1 7.9-19.1 15.3-25.4 25.7c-6.1 10.3-7.9 22.6-10.5 34.3c-1.5 6.7-3.3 14.5-5.7 22.6c-3-1-6.3-1.8-9.8-2.1c-14.2-1.5-26.2 3.6-27 11.2c-0.8 7.6 10 15 24.2 16.4q1.5 0.2 2.9 0.2q-1.1 2.4-2.4 4.6c-3.5 6.2-7.5 11.6-12.2 15.6c-13.8 11.9-33.3 23.2-51.2 27.3c-13.4 3-27.1 3.2-40 7.6c-5.4 1.8-11.3 3.7-16.8 5.1c-4.4 1.1-20.7 1-23.1 5.7c1.8-3.5 0.6-7.8-1.1-11.3c-6.6-13.9-12.6-28.3-19.3-42.4c-8.9-19.2-12.2-41-9.2-61.9c1.3-9.2 5.2-17.5 6.9-26.7c2.1-10.7 5.7-21.1 12.1-30c7.8-10.8 19-18.7 28.5-28c34.1-33.4 45.4-83.9 45.9-131.6c0.3-21.4-1.2-43.3 5.4-63.6c6.6-20.3 20.5-37 34.8-52.9q0 0.2 0 0.4c-1.3 12.5 6.6 23.5 17.5 24.6c10.9 1.1 20.8-8.1 22.1-20.6c1.3-12.4-6.6-23.5-17.5-24.6q-1.8-0.1-3.6 0.1c6.5-7.1 13-14.1 19.7-21c6.7-6.9 13.8-14 23-16.9c8-2.5 16.8-1.6 24.9 0.8c16.8 4.8 32 16 39.9 31.6c27.7 55.1-27.3 115.5-16.9 172.3z" />
								<g id="&lt;Group&gt;">
									<g id="&lt;Group&gt;">
										<path id="&lt;Path&gt;" class="s26" d="m1392.3 1969c-6.9 45.2-11.5 89.5-27.5 132.7c-15.6 42-33.3 83.5-53.1 123.7c-11 22.2-23.6 43.7-33.7 66.3c-9 20.2-21.7 37.8-32.9 56.8c-23.2 39.3-41.3 81.4-41.8 127.7c-0.1 4.6-7.1 4.5-7-0.1c0.5-42.6 15.3-83.3 36.3-120c11.9-20.8 27-40.2 36.7-62c9.2-20.6 20.3-40.1 30.3-60.2c21.8-43.5 42-88.4 58.5-134.2c15.6-43.3 20.5-87.5 27.5-132.7c0.6-4.5 7.4-2.4 6.7 2z" />
									</g>
									<g id="&lt;Group&gt;">
										<path id="&lt;Path&gt;" class="s26" d="m1427.1 2098.3c0.2 0.8 0.4 1.6 0.6 2.4c-25 10.2-50.1 20.3-75.2 30.2c0 1.4-1.8 2.5-3 1.3c-24.1-25.6-48-51.5-71.6-77.5q-0.1-2.6 0-5.2c24 26.3 48.1 52.6 72.5 78.5c25.6-10.1 51.1-20.4 76.6-30.8q0 0.5 0.1 1.1z" />
										<path id="&lt;Path&gt;" class="s26" d="m1372.8 2062.2q31.1-14.1 62.2-28.1q-0.7 2.2-1.4 4.4q-29.5 13.4-59.1 26.8c-2 0.9-3.7-2.2-1.7-3.1z" />
										<path id="&lt;Path&gt;" class="s26" d="m1370.8 2058.3c1.4 1.7-1.2 4.2-2.5 2.4c-22.6-29-46.1-57.1-70.5-84.4q1.1-1.5 2.1-2.9c24.6 27.5 48.2 55.7 70.9 84.9z" />
										<path id="&lt;Path&gt;" class="s26" d="m1442.8 2149.9q0.3 1.7 0.5 3.5q-13 3.1-25.8 6.6c-15.7 4.3-31.3 8.9-46.8 13.9c-13.3 4.3-26.5 9.4-40.6 10.3c-1.7 0.1-2.1-1.9-1.2-2.9c-18.1-21.3-37-42-56.3-62.1q0.4-2.1 0.8-4.2c20.1 20.8 39.5 42.1 58.3 64.1c0.3 0.4 0.4 0.9 0.4 1.4c15.1-1.4 29.5-7.5 43.9-12c14.5-4.5 29.1-8.8 43.8-12.7q11.4-3.1 23-5.9z" />
										<path id="&lt;Path&gt;" class="s26" d="m1300.9 2236.1c1.4 1.7-1.2 4.1-2.6 2.4q-24.3-30.4-48.6-60.7q1-1.6 1.9-3.2q24.6 30.7 49.3 61.5z" />
										<path id="&lt;Path&gt;" class="s26" d="m1302.2 2238.1c38.7-8.8 77.8-15.7 117.2-20.7q-1.9 2.1-3.8 4c-37.8 5-75.4 11.6-112.6 20.1c-2.2 0.5-3-2.9-0.8-3.4z" />
										<path id="&lt;Path&gt;" class="s26" d="m1268.4 2306.1c35.6-8.3 71.4-15.9 107.3-23q-0.3 1.4-0.6 2.7c0 0.4-0.1 0.7-0.2 1c-35.3 7-70.6 14.5-105.7 22.7c-1.9 0.4-2.8-2.1-1.5-3.1c-0.6 0.3-1.4 0.3-1.9-0.4c-20.6-26.6-40.8-53.4-60.6-80.5q1.1-1.4 2.2-2.8c20 27.2 40.3 54.2 60.9 80.9c0.8 1 0.3 2.2-0.5 2.8q0.2-0.2 0.6-0.3z" />
										<path id="&lt;Path&gt;" class="s26" d="m1333.3 2353.6q7.3-1 14.6-2c-0.9 1-1.8 1.9-2.8 2.7c-0.5 0.5-1.2 1-1.8 1.5q-4.6 0.6-9.1 1.2q-51.8 7.2-103.5 14.3c-0.7 0.8-2.2 1-3-0.2q-22.1-33.6-44.2-67.2q-0.1-3.2-0.1-6.4q23.2 35.2 46.3 70.4q51.8-7.1 103.6-14.3z" />
									</g>
								</g>
								<g id="&lt;Group&gt;" style="opacity: .2;mix-blend-mode: multiply">
									<path id="&lt;Path&gt;" class="s26" d="m1427.1 2098.3c3.6 19.5 14.6 37.3 16.5 57.1c2.6 26.2-13.5 53.6-32.6 70.4c-9.1 7.9-19.1 15.3-25.4 25.7c-6.1 10.3-7.9 22.6-10.5 34.3c-1.5 6.7-3.3 14.5-5.7 22.6c-3-1-6.3-1.8-9.8-2.1c-14.2-1.5-26.2 3.6-27 11.2c-0.8 7.6 10 15 24.2 16.4q1.5 0.2 2.9 0.2q-1.1 2.4-2.4 4.6c-3.5 6.2-7.5 11.6-12.2 15.6c-13.8 11.9-33.3 23.2-51.2 27.3c-13.4 3-27.1 3.2-40 7.6c-5.4 1.8-11.3 3.7-16.8 5.1c-3.3 0.8-13.2 1-19.1 3q26.2-31.8 52.3-63.5c15.8-19.2 32-39.1 38.8-63c10.4-37.1-3.7-77.2 3.4-115.1c9.9-53.3 58.6-90.6 79.1-140.7c15.7-38.6 13.4-81.6 3.1-122.6c3.2 0.4 6.4 1.1 9.4 2c16.8 4.8 32 16 39.9 31.6c27.7 55.1-27.3 115.5-16.9 172.3z" />
								</g>
							</g>
							<g id="&lt;Group&gt;" style="opacity: .2;mix-blend-mode: multiply">
								<path id="&lt;Path&gt;" class="s30" d="m979.4 2353c23.9 16.7 49.7 30.8 74 46.8c-2.2 6.9-4.3 13.8-6 20.5c1.6-6.2-67.6-24-75-26.7c-20.3-7.7-40.2-17.4-57.9-30.1c-17.5-12.6-29.1-28.6-42.3-45.3c-23.1-28.9-44.1-61.7-51.5-98.4q2.6 0.4 5.3 0.4c12.1 0 21.9-5.8 21.9-12.9c0-7.2-9.8-13-21.9-13c-2.8 0-5.5 0.3-8 0.9q-0.1-3.3-0.2-6.6c-0.2-9.7-0.5-19.4-3.3-28.6c-3.5-11.1-10.4-20.9-16.3-30.9c-21.5-36.2-41.3-94.8-7.5-130.3c6.7-7.1 15.6-12.2 25.1-14.5c1.3 35.6 3.8 73.2 24.1 102.4c10.5 14.9 25.1 26.8 34 42.7c10.7 19 12.1 41.6 14.4 63.2c7.2 67.2 35.2 121.3 91.1 160.4z" />
							</g>
							<g id="&lt;Group&gt;">
								<path id="&lt;Path&gt;" class="s3" d="m1331 2377.8c1 21.4 3.8 127.7-27.6 223.1c-27.5 83.1-53.4 115.7-72.3 130.8c-5.2 4.2-11.6 6.6-18.3 6.7v0.1h-0.7h-133.1h-0.7v-0.1c-6.7-0.1-13.1-2.5-18.3-6.7c-18.9-15.1-44.8-47.7-72.3-130.8c-31.5-95.4-28.6-201.7-27.6-223.1h106.5h157.9z" />
								<g id="&lt;Group&gt;" style="opacity: .2;mix-blend-mode: overlay">
									<path id="&lt;Path&gt;" class="s6" d="m1331.1 2379.3c0.4 9.5 0.9 30.8-0.3 58.8c-118.2 42.1-235.7 86.4-351.2 135.2c-4.8-18.6-8.5-37.1-11.4-55.1c119.5-50.1 240.8-95.6 362.9-138.9z" />
									<path id="&lt;Path&gt;" class="s6" d="m993.9 2618.9c109.6-45.6 220.7-87.3 332.6-127.2c-1.1 8.8-2.3 17.8-3.7 27c-107.7 38.5-214.7 78.8-320.3 122.7q-4.2-10.5-8.6-22.5z" />
									<path id="&lt;Path&gt;" class="s6" d="m1020.7 2680.7c96.5-40.8 194.2-78.6 292.6-114.5c-2.9 11.6-6.2 23.2-9.9 34.7c-3.9 11.6-7.7 22.2-11.5 32c-79.9 29.6-159.3 60.6-237.9 93.7c-9.8-9.2-21.1-23.3-33.3-45.9z" />
								</g>
								<g id="&lt;Group&gt;" style="opacity: .4">
									<path id="&lt;Path&gt;" class="s31" d="m1331 2377.8c1 21.4 3.8 127.7-27.6 223.1c-27.5 83.1-53.4 115.7-72.3 130.8c-5.2 4.2-11.6 6.6-18.3 6.7v0.1h-0.7h-44.7c30.7-49.3 52.9-104.2 66.6-160.8c15.7-65.3 20.6-132.7 17.9-199.9z" />
								</g>
								<path id="&lt;Path&gt;" class="s31" d="m1344.4 2369.1v45.1c0 1.7-1.5 3.1-3.2 3.1h-394.9c-1.7 0-3.2-1.4-3.2-3.1v-45.1c0-1.8 1.5-3.2 3.2-3.2h394.9c1.7 0 3.2 1.4 3.2 3.2z" />
							</g>
						</g>
						<path id="&lt;Path&gt;" class="s32" d="m658.5 2800.4h3362.7v59.9h-3362.7z" />
						<g id="&lt;Group&gt;">
							<g id="&lt;Group&gt;">
								<path id="&lt;Path&gt;" class="s3" d="m3499.2 2639.4v102.9c0 0.4-0.3 0.6-0.6 0.6h-554.3c-0.3 0-0.6-0.2-0.6-0.6v-102.9c0-0.3 0.3-0.6 0.6-0.6h554.3c0.3 0 0.6 0.3 0.6 0.6z" />
								<path id="&lt;Path&gt;" class="s31" d="m3391.8 2638.8h18.3v104.1h-18.3z" />
								<path id="&lt;Path&gt;" class="s31" d="m3357.4 2638.8h18.3v104.1h-18.3z" />
							</g>
							<g id="&lt;Group&gt;">
								<path id="&lt;Path&gt;" class="s3" d="m3553.7 2454.5v102.9c0 0.3-0.3 0.6-0.6 0.6h-554.3c-0.3 0-0.6-0.3-0.6-0.6v-102.9c0-0.4 0.3-0.7 0.6-0.7h554.3c0.3 0 0.6 0.3 0.6 0.7z" />
								<path id="&lt;Path&gt;" class="s6" d="m3190.4 2496.8h171.1v18.3h-171.1z" />
								<path id="&lt;Path&gt;" class="s6" d="m3059.8 2496.8h85.5v18.3h-85.5z" />
								<path id="&lt;Path&gt;" class="s6" d="m3477.6 2505.9c0 20.9-16.9 37.9-37.8 37.9c-20.9 0-37.8-17-37.8-37.9c0-20.9 16.9-37.8 37.8-37.8c20.9 0 37.8 16.9 37.8 37.8z" />
							</g>
							<g id="&lt;Group&gt;">
								<path id="&lt;Path&gt;" class="s33" d="m3294 2572h331.1v52.7h-331.1z" />
								<path id="&lt;Path&gt;" class="s31" d="m3642.4 2565c0 3.9-3.1 7-7 7h-336c-3 0-5.4 2.5-5.4 5.5v41.8c0 3 2.4 5.4 5.4 5.4h336c3.9 0 7 3.2 7 7.1c0 3.8-3.1 7-7 7h-592c-4.7 0-8.6-3.8-8.6-8.6v-63.7c0-4.7 3.9-8.5 8.6-8.5h592c3.9 0 7 3.1 7 7z" />
								<path id="&lt;Path&gt;" class="s3" d="m3066.2 2589.3h184.7v18.2h-184.7z" />
							</g>
						</g>
						<g id="&lt;Group&gt;">
							<path id="&lt;Path&gt;" class="s18" d="m3684.2 2371.2h90.4v37.1h-90.4z" />
							<path id="&lt;Path&gt;" class="s14" d="m3774.6 2336.5v34.7h-90.4v-34.7c0-1.3 1.1-2.3 2.3-2.3h85.8c1.3 0 2.3 1 2.3 2.3z" />
							<path id="&lt;Path&gt;" class="s17" d="m3808.9 2432c-5.1 44-12.1 43.1-12.1 104.1c0 61 7 131.8 12.1 175.8c2.6 22.5-15 42.3-37.6 42.3h-83.7c-22.7 0-40.3-19.8-37.6-42.3c5.1-44 12.1-114.8 12.1-175.8c0-61-7-60.1-12.1-104.1c-2.7-22.5 14.9-42.3 37.6-42.3h83.7c22.6 0 40.2 19.8 37.6 42.3z" />
						</g>
					</g>
				</g>
				<g id="&lt;Group&gt;">
					<g id="&lt;Group&gt;">
						<path id="&lt;Path&gt;" class="s34" d="m3537.1 1498.6q-336.1 138.5-677.6-37.7q-31.6-93.1 32.9-122.7q90.4-41.6 104.2-141l394.2-81.7q43.5 73.7 36.2 184.2c-7.4 113 113.7 89.8 110.1 198.9z" />
						<path id="&lt;Path&gt;" class="s34" d="m3414.2 1211.2c-3.6 107.2-100 191-215.3 187.1c-115.3-3.8-205.9-93.9-202.3-201.1c3.6-107.2 100-191 215.3-187.1c115.4 3.9 205.9 93.9 202.3 201.1z" />
						<path id="&lt;Path&gt;" class="s34" d="m3361 1145.6q25.5 149.5-59.3 170.3c-1.2-13.4-50.3-117-7.3-252.1q50.7-11.4 66.6 81.8z" />
						<path id="&lt;Path&gt;" class="s34" d="m3310.7 1073.2q-63.4 75.7-320.8 60.7q40.8-101.5 171.4-119.8q130.6-18.4 149.4 59.1z" />
					</g>
					<g id="&lt;Group&gt;">
						<g id="&lt;Group&gt;">
							<g id="&lt;Group&gt;">
								<g id="&lt;Group&gt;">
									<path id="&lt;Path&gt;" class="s34" d="m3398.2 1276.7c-3.7 29.8-54.2 140.8-93.2 128.5l-323.1-69.7l-10.3-105c-18.6-78.8-50.5-165.9 113.2-173.3c54.4-52.3 103.8 10.1 169.1 48.1c6.9 3.9 33.1-13.2 39.3-8.3c65.8 51.1 115.3 96.9 105 179.7z" />
									<g id="&lt;Group&gt;">
										<g id="&lt;Group&gt;">
											<g id="&lt;Group&gt;">
												<g id="&lt;Group&gt;">
													<g id="&lt;Group&gt;">
														<g id="&lt;Group&gt;">
															<g id="&lt;Group&gt;">
																<path id="&lt;Path&gt;" class="s24" d="m3266.3 1344.7l21.5 230.8q-34.5 30.4-94.7 35q-72.4 5.5-89.8-11.5l-7.8-143.5l-3.3-76.7z" />
																<path id="&lt;Path&gt;" class="s25" d="m3095.5 1455.5l138.6 7.1l-131.6 126.8z" />
															</g>
															<path id="&lt;Path&gt;" class="s24" d="m3095.4 1119.8l157.7 2.3l-4.6 313c-0.2 13.9-8.8 26.3-21.7 31.6l-129.6 51.9c-11 4.4-23.6 2.9-33.2-4.1l-68.4-49.8c-9.1-6.6-14.5-17.2-14.3-28.5l0.2-10.7l1.8-125.2l1-72.6c1-60.5 50.7-108.8 111.1-107.9z" />
															<path id="&lt;Path&gt;" class="s25" d="m3017.5 1364.2c2.3 23.1-12.4 44.1-34.2 51.7l-0.4-93.6c18.6 6 32.6 21.9 34.6 41.9z" />
															<path id="&lt;Path&gt;" class="s35" d="m3075.8 1383.8c-0.7 1.7-2.2 2.9-4 3q-0.9 0.1-1.8-0.3l-47-16.6c-2.2-0.7-3.5-3.1-2.8-5.4l30.7-113.9c0.7-2.4 3.2-3.8 5.6-3.2c2.4 0.7 3.9 3.2 3.2 5.6l-29.7 109.8l43 15.2c2.4 0.8 3.6 3.4 2.8 5.8z" />
															<path id="&lt;Path&gt;" class="s24" d="m3338.8 1355.5c-0.5 35.1-29.3 63.2-64.4 62.7c-35.1-0.5-63.1-29.4-62.6-64.6c0.5-35.1 29.4-63.1 64.5-62.6c35 0.5 63.1 29.4 62.5 64.5z" />
															<path id="&lt;Path&gt;" class="s26" d="m2983.6 1229.7c5.1 12.5 49.8 4.5 47.5-7.8c-3.9-20.4-55.5-11.9-47.5 7.8z" />
															<path id="&lt;Path&gt;" class="s26" d="m3125.5 1217c-3.5 12.1 40.3 24 46.5 12.1c9.8-19-40.8-32-46.5-12.1z" />
															<path id="&lt;Path&gt;" class="s25" d="m3219.2 1362.2c2 26.4-17.8 49.5-44.2 51.6c-26.4 2-49.5-17.8-51.5-44.3c-2-26.4 17.7-49.5 44.2-51.6c26.4-2 49.5 17.8 51.5 44.3z" />
															<path id="&lt;Path&gt;" class="s26" d="m3125.2 1305.7c-0.2 11.6-5.9 20.8-12.9 20.7c-6.9-0.1-12.5-9.5-12.3-21c0.2-11.6 6-20.8 12.9-20.7c7 0.1 12.5 9.5 12.3 21z" />
															<path id="&lt;Path&gt;" class="s26" d="m3019.1 1306.2c-0.2 11.5-5.8 20.8-12.5 20.7c-6.7-0.1-12-9.5-11.9-21.1c0.2-11.5 5.8-20.8 12.5-20.7c6.7 0.1 12 9.5 11.9 21.1z" />
														</g>
													</g>
												</g>
											</g>
											<g id="&lt;Group&gt;">
												<path id="&lt;Path&gt;" class="s35" d="m3292.8 1333.8l4.6 4.6l-36.8 36.7l-4.5-4.6z" />
												<path id="&lt;Path&gt;" class="s35" d="m3279 1352.1l16.2 15.7l-4.5 4.7l-16.3-15.7z" />
											</g>
										</g>
									</g>
									<path id="&lt;Path&gt;" class="s34" d="m3337.4 1218.1c9.8 53.3-61.1 86.5-92.6 130.6c0.6-23.1-3.2-48.8-3.2-51.5c-13.3-8.7-14.3-2.9-23.5-15.8c-10.6-15.1-0.6-58.5-12.8-72.2c-9.8-11.1-34.9-8.5-70.7-16.2q-73.7-15.9-81.7-58.7q-61.6 13.1-85.1 171.7c2.7-58.9 6.6-102.4 32.7-153.1c26.1-50.7 32.3-74.3 85.7-94.6c32.2-12.2 67.8-17.2 101.6-10.7c39.3 7.7 75.1 30.9 100.7 61.8c25.7 30.9 41.7 69.2 48.9 108.7z" />
								</g>
							</g>
						</g>
						<path id="&lt;Path&gt;" class="s35" d="m3108.8 1419.7c0.6 2-0.5 4.2-2.5 4.8c-17 5.5-30.9 7.3-42 7.3c-21.9 0-32.7-7.1-33.4-7.5c-1.8-1.2-2.2-3.6-1-5.4c1.2-1.8 3.6-2.2 5.3-1.1c0.3 0.3 22.5 14.2 68.7-0.6c2-0.7 4.2 0.4 4.9 2.5z" />
					</g>
					<g id="&lt;Group&gt;">
						<g id="&lt;Group&gt;">
							<path id="&lt;Path&gt;" class="s36" d="m3161.6 1279.6l-57 73.7q-26.9 3.4-43.5-29l56.5-75.5q29-1.9 44 30.8z" />
							<path id="&lt;Path&gt;" class="s36" d="m3029.8 1278.6l-48.2 73.6q-22.8 3.4-36.9-29l47.8-75.5q24.5-1.8 37.3 30.9z" />
							<path id="&lt;Compound Path&gt;" fill-rule="evenodd" class="s6" d="m3152.3 1261.2c10.8 11 16.6 25.4 16.5 40.7c-0.1 15.4-6.2 29.7-17.1 40.5c-10.8 10.6-25 16.5-40.2 16.5q-0.2 0-0.4 0c-15.3-0.1-29.7-6.2-40.4-17.1c-10.7-10.9-16.6-25.4-16.5-40.7c0.1-15.3 6.2-29.7 17.1-40.5c10.9-10.7 25.3-16.6 40.6-16.5c15.3 0.2 29.7 6.2 40.4 17.1zm11.2 40.7c0.1-13.9-5.2-27-15-36.9c-9.7-9.9-22.7-15.4-36.6-15.5q-0.2 0-0.4 0c-13.7 0-26.7 5.3-36.5 14.9c-9.9 9.8-15.4 22.8-15.5 36.7c-0.1 13.9 5.2 27 15 36.9c9.7 9.9 22.7 15.4 36.6 15.6c13.9 0.1 27-5.3 36.9-15c9.9-9.8 15.4-22.8 15.5-36.7z" />
							<path id="&lt;Compound Path&gt;" fill-rule="evenodd" class="s6" d="m3036.3 1300.9c-0.1 16.8-6.5 32.7-17.4 43.5c-8.8 8.7-20 13.4-31.5 13.4q-0.2 0-0.4 0c-27-0.3-48.9-26.2-48.7-57.8c0-16.8 6.4-32.7 17.3-43.5c8.9-8.8 20.2-13.5 31.9-13.4c27.1 0.3 48.9 26.2 48.8 57.8zm-5.4 0c0.2-28.7-19.3-52.2-43.4-52.5q-0.2 0-0.4 0c-10.1 0-19.9 4.2-27.7 11.9c-10 9.8-15.8 24.3-15.8 39.7c-0.2 28.7 19.3 52.2 43.4 52.5c10.3 0.1 20.3-4.1 28.2-11.9c9.9-9.8 15.7-24.3 15.7-39.7z" />
							<path id="&lt;Path&gt;" class="s6" d="m3055.6 1303.4l1.3-2.3z" />
							<path id="&lt;Path&gt;" class="s6" d="m3058.2 1298.8l-1.3 2.3l-1.3 2.3l1.3-2.3l-1.3 2.3c-0.4-0.2-10.5-5.7-20.7-0.1l-2.6-4.7c12.9-7 25.3-0.1 25.9 0.2z" />
							<path id="&lt;Path&gt;" class="s6" d="m3167 1304l79.1 28.2l-1.8 5.1l-79.1-28.3z" />
						</g>
					</g>
				</g>
			</g>
		</g>
	</g>
</svg>