<?xml version="1.0" encoding="utf-8"?>
<!-- Generator: Adobe Illustrator 16.0.0, SVG Export Plug-In . SVG Version: 6.00 Build 0)  -->
<!DOCTYPE svg PUBLIC "-//W3C//DTD SVG 1.0//EN" "http://www.w3.org/TR/2001/REC-SVG-20010904/DTD/svg10.dtd" [
	<!ENTITY ns_flows "http://ns.adobe.com/Flows/1.0/">
	<!ENTITY ns_extend "http://ns.adobe.com/Extensibility/1.0/">
	<!ENTITY ns_ai "http://ns.adobe.com/AdobeIllustrator/10.0/">
	<!ENTITY ns_graphs "http://ns.adobe.com/Graphs/1.0/">
	<!ENTITY ns_vars "http://ns.adobe.com/Variables/1.0/">
	<!ENTITY ns_imrep "http://ns.adobe.com/ImageReplacement/1.0/">
	<!ENTITY ns_sfw "http://ns.adobe.com/SaveForWeb/1.0/">
	<!ENTITY ns_custom "http://ns.adobe.com/GenericCustomNamespace/1.0/">
	<!ENTITY ns_adobe_xpath "http://ns.adobe.com/XPath/1.0/">
]>
<svg version="1.0" id="Layer_1" xmlns:x="&ns_extend;" xmlns:i="&ns_ai;" xmlns:graph="&ns_graphs;"
	 xmlns="http://www.w3.org/2000/svg" xmlns:xlink="http://www.w3.org/1999/xlink" xmlns:a="http://ns.adobe.com/AdobeSVGViewerExtensions/3.0/"
	 x="0px" y="0px" width="1500px" height="1500px" viewBox="0 0 1500 1500" enable-background="new 0 0 1500 1500"
	 xml:space="preserve">
<g>
	<rect fill-rule="evenodd" clip-rule="evenodd" fill="transparent" width="1500" height="1500"/>
	<g>
		<g>
			<path fill-rule="evenodd" clip-rule="evenodd" fill="#33A4AC" d="M725.697,616.334h-260.78c-5.567,0-10.123,4.555-10.123,10.122
				v0.005c0,5.567,4.555,10.122,10.123,10.122h260.78c5.571,0,10.126-4.555,10.126-10.122v-0.005
				C735.824,620.89,731.269,616.334,725.697,616.334z"/>
			<path fill-rule="evenodd" clip-rule="evenodd" fill="#33A4AC" d="M725.697,647.93h-260.78c-5.567,0-10.123,4.559-10.123,10.126
				l0,0c0,5.571,4.555,10.126,10.123,10.126h260.78c5.571,0,10.126-4.555,10.126-10.126l0,0
				C735.824,652.489,731.269,647.93,725.697,647.93z"/>
			<path fill-rule="evenodd" clip-rule="evenodd" fill="#33A4AC" d="M725.697,679.529h-260.78c-5.567,0-10.123,4.555-10.123,10.126
				l0,0c0,5.567,4.555,10.123,10.123,10.123h260.78c5.571,0,10.126-4.555,10.126-10.123l0,0
				C735.824,684.084,731.269,679.529,725.697,679.529z"/>
			<path fill-rule="evenodd" clip-rule="evenodd" fill="#7BCED4" d="M504.629,684.26H466.94c-2.966,0-5.396,2.43-5.396,5.396l0,0
				c0,2.966,2.43,5.392,5.396,5.392h37.689c2.966,0,5.391-2.426,5.391-5.392l0,0C510.02,686.69,507.595,684.26,504.629,684.26z"/>
			<path fill-rule="evenodd" clip-rule="evenodd" fill="#7BCED4" d="M494.142,652.66H466.94c-2.966,0-5.396,2.43-5.396,5.396l0,0
				c0,2.971,2.43,5.391,5.396,5.391h27.202c2.966,0,5.396-2.42,5.396-5.391l0,0C499.537,655.09,497.107,652.66,494.142,652.66z"/>
			<path fill-rule="evenodd" clip-rule="evenodd" fill="#7BCED4" d="M504.629,621.065H466.94c-2.966,0-5.396,2.426-5.396,5.391l0,0
				c0,2.97,2.43,5.396,5.396,5.396h37.689c2.966,0,5.391-2.426,5.391-5.396l0,0C510.02,623.491,507.595,621.065,504.629,621.065z"/>
			<path fill-rule="evenodd" clip-rule="evenodd" fill="#F79222" d="M310.752,530.886h115.357c7.596,0,13.804,6.213,13.804,13.809
				l0,0c0,7.59-6.208,13.804-13.804,13.804H310.752c-7.59,0-13.804-6.213-13.804-13.804l0,0
				C296.948,537.099,303.162,530.886,310.752,530.886z"/>
			<path fill-rule="evenodd" clip-rule="evenodd" fill="#F16464" d="M324.451,478.058c2.204,0.48,4.268,1.354,6.111,2.532
				l2.813-2.813c0.402-0.402,1.058-0.402,1.46,0l4.274,4.278c0.406,0.402,0.406,1.058,0,1.46l-2.809,2.813
				c1.178,1.843,2.051,3.904,2.531,6.112h3.973c0.573,0,1.035,0.462,1.035,1.031v6.047c0,0.568-0.462,1.03-1.035,1.03h-3.973
				c-0.48,2.208-1.354,4.273-2.531,6.117l2.809,2.814c0.406,0.402,0.406,1.053,0,1.455l-4.274,4.278
				c-0.402,0.402-1.058,0.402-1.46,0l-2.813-2.814c-1.843,1.184-3.908,2.052-6.111,2.537v3.973c0,0.568-0.467,1.035-1.036,1.035
				h-6.047c-0.563,0-1.03-0.467-1.03-1.035v-3.978c-2.204-0.48-4.264-1.354-6.111-2.532l-2.814,2.814
				c-0.402,0.402-1.058,0.402-1.455,0l-4.278-4.278c-0.406-0.402-0.406-1.058,0-1.455l2.809-2.814
				c-1.178-1.843-2.051-3.908-2.531-6.117h-3.978c-0.568,0-1.03-0.461-1.03-1.03v-6.047c0-0.568,0.462-1.031,1.03-1.031h3.978
				c0.48-2.208,1.349-4.269,2.531-6.112l-2.809-2.813c-0.406-0.402-0.406-1.058,0-1.46l4.278-4.278c0.397-0.402,1.053-0.402,1.455,0
				l2.814,2.818c1.848-1.183,3.908-2.051,6.111-2.537v-3.978c0-0.568,0.467-1.03,1.03-1.03h6.047c0.568,0,1.036,0.461,1.036,1.03
				V478.058L324.451,478.058z M320.394,486.378c-5.585,0-10.113,4.532-10.113,10.118s4.528,10.113,10.113,10.113
				c5.585,0,10.113-4.527,10.113-10.113S325.979,486.378,320.394,486.378z"/>
			<path fill-rule="evenodd" clip-rule="evenodd" fill="#33A4AC" d="M352.026,479.49h40.193c1.94,0,3.524,1.584,3.524,3.525v0.004
				c0,1.94-1.584,3.525-3.524,3.525h-40.193c-1.945,0-3.529-1.585-3.529-3.525v-0.004
				C348.497,481.074,350.081,479.49,352.026,479.49z"/>
			<path fill-rule="evenodd" clip-rule="evenodd" fill="#33A4AC" d="M352.026,498.814h18.258c1.94,0,3.525-1.584,3.525-3.525v-0.004
				c0-1.936-1.584-3.525-3.525-3.525h-18.258c-1.94,0-3.529,1.59-3.529,3.525v0.004C348.497,497.23,350.085,498.814,352.026,498.814
				z"/>
			<g>
				<path fill-rule="evenodd" clip-rule="evenodd" fill="#FFFFFF" d="M309.459,536.397L309.459,536.397
					c2.735,0,4.98,2.241,4.98,4.98v6.634c0,2.739-2.245,4.98-4.98,4.98l0,0c-2.745,0-4.98-2.241-4.98-4.98v-6.634
					C304.479,538.638,306.714,536.397,309.459,536.397z"/>
				<path fill-rule="evenodd" clip-rule="evenodd" fill="#FFFFFF" d="M323.873,536.397L323.873,536.397
					c2.745,0,4.98,2.241,4.98,4.98v6.634c0,2.739-2.235,4.98-4.98,4.98l0,0c-2.735,0-4.98-2.241-4.98-4.98v-6.634
					C318.893,538.638,321.138,536.397,323.873,536.397z"/>
				<path fill-rule="evenodd" clip-rule="evenodd" fill="#FFFFFF" d="M338.292,536.397h0.004c2.735,0,4.98,2.241,4.98,4.98v6.634
					c0,2.739-2.245,4.98-4.98,4.98h-0.004c-2.74,0-4.976-2.241-4.976-4.98v-6.634C333.316,538.638,335.551,536.397,338.292,536.397z
					"/>
			</g>
			<path fill-rule="evenodd" clip-rule="evenodd" fill="#F16464" d="M479.894,529.485h43.875c4.893,0,8.894,4.006,8.894,8.898
				v43.875c0,4.893-4.001,8.898-8.894,8.898h-43.875c-4.893,0-8.898-4.006-8.898-8.898v-43.875
				C470.996,533.491,475.001,529.485,479.894,529.485z"/>
			<path fill-rule="evenodd" clip-rule="evenodd" fill="#F79222" d="M1076.52,530.886h115.356c7.596,0,13.805,6.213,13.805,13.809
				l0,0c0,7.59-6.209,13.804-13.805,13.804H1076.52c-7.596,0-13.805-6.213-13.805-13.804l0,0
				C1062.715,537.099,1068.924,530.886,1076.52,530.886z"/>
			<path fill-rule="evenodd" clip-rule="evenodd" fill="#F16464" d="M1090.213,478.058c2.207,0.48,4.269,1.354,6.116,2.532
				l2.813-2.813c0.401-0.402,1.059-0.402,1.455,0l4.277,4.278c0.402,0.402,0.402,1.058,0,1.46l-2.813,2.813
				c1.178,1.843,2.051,3.904,2.536,6.112h3.973c0.573,0,1.034,0.462,1.034,1.031v6.047c0,0.568-0.461,1.03-1.034,1.03h-3.973
				c-0.485,2.208-1.358,4.273-2.536,6.117l2.813,2.814c0.402,0.402,0.402,1.053,0,1.455l-4.277,4.278
				c-0.396,0.402-1.054,0.402-1.455,0l-2.813-2.814c-1.848,1.184-3.909,2.052-6.116,2.537v3.973c0,0.568-0.462,1.035-1.03,1.035
				h-6.048c-0.563,0-1.03-0.467-1.03-1.035v-3.978c-2.208-0.48-4.269-1.354-6.112-2.532l-2.818,2.814
				c-0.397,0.402-1.053,0.402-1.455,0l-4.273-4.278c-0.406-0.402-0.406-1.058,0-1.455l2.81-2.814
				c-1.184-1.843-2.052-3.908-2.532-6.117h-3.978c-0.568,0-1.03-0.461-1.03-1.03v-6.047c0-0.568,0.462-1.031,1.03-1.031h3.978
				c0.48-2.208,1.349-4.269,2.532-6.112l-2.81-2.813c-0.406-0.402-0.406-1.058,0-1.46l4.273-4.278c0.402-0.402,1.058-0.402,1.455,0
				l2.818,2.818c1.844-1.183,3.904-2.051,6.112-2.537v-3.978c0-0.568,0.467-1.03,1.03-1.03h6.048c0.568,0,1.03,0.461,1.03,1.03
				V478.058L1090.213,478.058z M1086.156,486.378c-5.581,0-10.109,4.532-10.109,10.118s4.528,10.113,10.109,10.113
				c5.589,0,10.117-4.527,10.117-10.113S1091.745,486.378,1086.156,486.378z"/>
			<path fill-rule="evenodd" clip-rule="evenodd" fill="#33A4AC" d="M1117.788,479.49h40.197c1.937,0,3.521,1.584,3.521,3.525v0.004
				c0,1.94-1.584,3.525-3.521,3.525h-40.197c-1.939,0-3.524-1.585-3.524-3.525v-0.004
				C1114.264,481.074,1115.849,479.49,1117.788,479.49z"/>
			<path fill-rule="evenodd" clip-rule="evenodd" fill="#33A4AC" d="M1117.788,498.814h18.262c1.94,0,3.525-1.584,3.525-3.525
				v-0.004c0-1.936-1.585-3.525-3.525-3.525h-18.262c-1.939,0-3.524,1.59-3.524,3.525v0.004
				C1114.264,497.23,1115.849,498.814,1117.788,498.814z"/>
			<g>
				<path fill-rule="evenodd" clip-rule="evenodd" fill="#FFFFFF" d="M1075.221,536.397L1075.221,536.397
					c2.739,0,4.98,2.241,4.98,4.98v6.634c0,2.739-2.241,4.98-4.98,4.98l0,0c-2.74,0-4.979-2.241-4.979-4.98v-6.634
					C1070.241,538.638,1072.48,536.397,1075.221,536.397z"/>
				<path fill-rule="evenodd" clip-rule="evenodd" fill="#FFFFFF" d="M1089.639,536.397L1089.639,536.397
					c2.74,0,4.981,2.241,4.981,4.98v6.634c0,2.739-2.241,4.98-4.981,4.98l0,0c-2.739,0-4.979-2.241-4.979-4.98v-6.634
					C1084.659,538.638,1086.899,536.397,1089.639,536.397z"/>
				<path fill-rule="evenodd" clip-rule="evenodd" fill="#FFFFFF" d="M1104.058,536.397L1104.058,536.397
					c2.739,0,4.979,2.241,4.979,4.98v6.634c0,2.739-2.24,4.98-4.979,4.98l0,0c-2.739,0-4.979-2.241-4.979-4.98v-6.634
					C1099.078,538.638,1101.318,536.397,1104.058,536.397z"/>
				<path fill-rule="evenodd" clip-rule="evenodd" fill="#FFFFFF" d="M1118.477,536.397L1118.477,536.397
					c2.739,0,4.98,2.241,4.98,4.98v6.634c0,2.739-2.241,4.98-4.98,4.98l0,0c-2.74,0-4.979-2.241-4.979-4.98v-6.634
					C1113.497,538.638,1115.736,536.397,1118.477,536.397z"/>
				<path fill-rule="evenodd" clip-rule="evenodd" fill="#FFFFFF" d="M1132.895,536.397L1132.895,536.397
					c2.74,0,4.98,2.241,4.98,4.98v6.634c0,2.739-2.24,4.98-4.98,4.98l0,0c-2.739,0-4.98-2.241-4.98-4.98v-6.634
					C1127.914,538.638,1130.155,536.397,1132.895,536.397z"/>
				<path fill-rule="evenodd" clip-rule="evenodd" fill="#FFFFFF" d="M1147.313,536.397L1147.313,536.397
					c2.739,0,4.979,2.241,4.979,4.98v6.634c0,2.739-2.24,4.98-4.979,4.98l0,0c-2.739,0-4.98-2.241-4.98-4.98v-6.634
					C1142.333,538.638,1144.574,536.397,1147.313,536.397z"/>
				<path fill-rule="evenodd" clip-rule="evenodd" fill="#FFFFFF" d="M1161.727,536.397h0.006c2.739,0,4.979,2.241,4.979,4.98v6.634
					c0,2.739-2.24,4.98-4.979,4.98h-0.006c-2.734,0-4.975-2.241-4.975-4.98v-6.634
					C1156.752,538.638,1158.992,536.397,1161.727,536.397z"/>
			</g>
			<path fill-rule="evenodd" clip-rule="evenodd" fill="#FFFFFF" d="M509.71,542.602c2.717-2.717,7.124-2.717,9.84,0
				c2.716,2.716,2.716,7.124,0,9.84l-7.882,7.876l7.882,7.882c2.716,2.716,2.716,7.119,0,9.835c-2.716,2.717-7.124,2.717-9.84,0
				l-7.882-7.877l-7.881,7.881c-2.717,2.712-7.119,2.712-9.836,0c-2.716-2.716-2.716-7.124,0-9.84l7.882-7.882l-7.882-7.876
				c-2.716-2.721-2.716-7.124,0-9.84c2.717-2.717,7.119-2.717,9.836,0l7.881,7.882L509.71,542.602z"/>
			<path fill-rule="evenodd" clip-rule="evenodd" fill="#F16464" d="M985.494,529.485h43.875c4.896,0,8.897,4.006,8.897,8.898
				v43.875c0,4.893-4.001,8.898-8.897,8.898h-43.875c-4.893,0-8.893-4.006-8.893-8.898v-43.875
				C976.602,533.491,980.602,529.485,985.494,529.485z"/>
			<path fill-rule="evenodd" clip-rule="evenodd" fill="#FFFFFF" d="M1015.311,549.004c2.717-2.716,7.119-2.716,9.836,0
				c2.716,2.717,2.716,7.119,0,9.836l-12.797,12.802c-2.717,2.712-7.124,2.712-9.841,0l-12.797-12.802
				c-2.716-2.717-2.716-7.124,0-9.836c2.716-2.721,7.124-2.721,9.841,0l7.881,7.877L1015.311,549.004z"/>
			<path fill-rule="evenodd" clip-rule="evenodd" fill="#33A4AC" d="M1362.247,616.334h-141.382
				c-5.566,0-10.122,4.555-10.122,10.122v0.005c0,5.567,4.556,10.122,10.122,10.122h141.382c5.571,0,10.126-4.555,10.126-10.122
				v-0.005C1372.373,620.89,1367.818,616.334,1362.247,616.334z"/>
			<path fill-rule="evenodd" clip-rule="evenodd" fill="#33A4AC" d="M1362.247,647.93h-141.382c-5.566,0-10.122,4.559-10.122,10.126
				l0,0c0,5.571,4.556,10.126,10.122,10.126h141.382c5.571,0,10.126-4.555,10.126-10.126l0,0
				C1372.373,652.489,1367.818,647.93,1362.247,647.93z"/>
			<path fill-rule="evenodd" clip-rule="evenodd" fill="#33A4AC" d="M1362.247,679.529h-141.382
				c-5.566,0-10.122,4.555-10.122,10.126l0,0c0,5.567,4.556,10.123,10.122,10.123h141.382c5.571,0,10.126-4.555,10.126-10.123l0,0
				C1372.373,684.084,1367.818,679.529,1362.247,679.529z"/>
			<path fill-rule="evenodd" clip-rule="evenodd" fill="#7BCED4" d="M1299.481,684.26h-76.597c-2.966,0-5.391,2.43-5.391,5.396l0,0
				c0,2.966,2.425,5.392,5.391,5.392h76.597c2.966,0,5.396-2.426,5.396-5.392l0,0C1304.877,686.69,1302.447,684.26,1299.481,684.26z
				"/>
			<path fill-rule="evenodd" clip-rule="evenodd" fill="#7BCED4" d="M1341.822,652.66h-118.938c-2.966,0-5.391,2.43-5.391,5.396l0,0
				c0,2.971,2.425,5.391,5.391,5.391h118.938c2.967,0,5.392-2.42,5.392-5.391l0,0C1347.214,655.09,1344.789,652.66,1341.822,652.66z
				"/>
			<path fill-rule="evenodd" clip-rule="evenodd" fill="#7BCED4" d="M1279.543,621.065h-56.658c-2.966,0-5.391,2.426-5.391,5.391
				l0,0c0,2.97,2.425,5.396,5.391,5.396h56.658c2.965,0,5.391-2.426,5.391-5.396l0,0
				C1284.934,623.491,1282.508,621.065,1279.543,621.065z"/>
			<path fill-rule="evenodd" clip-rule="evenodd" fill="#33A4AC" d="M275.12,598.95h-85.26l-26.416,26.416v141.099
				c0,6.07,4.971,11.042,11.05,11.042H275.12c6.075,0,11.045-4.972,11.045-11.042V609.996
				C286.165,603.92,281.195,598.95,275.12,598.95z"/>
			<path fill-rule="evenodd" clip-rule="evenodd" fill="#7BCED4" d="M263.546,621.065h-77.483c-2.273,0-4.13,1.857-4.13,4.13l0,0
				c0,2.273,1.857,4.13,4.13,4.13h77.483c2.273,0,4.131-1.857,4.131-4.13l0,0C267.677,622.922,265.82,621.065,263.546,621.065z"/>
			<path fill-rule="evenodd" clip-rule="evenodd" fill="#7BCED4" d="M263.546,635.229h-77.483c-2.273,0-4.13,1.857-4.13,4.125v0.005
				c0,2.273,1.857,4.13,4.13,4.13h77.483c2.273,0,4.131-1.857,4.131-4.13v-0.005C267.677,637.086,265.82,635.229,263.546,635.229z"
				/>
			<path fill-rule="evenodd" clip-rule="evenodd" fill="#7BCED4" d="M232.687,670.511c2.716-2.717,7.124-2.717,9.84,0
				c2.711,2.716,2.711,7.124,0,9.84l-7.881,7.876l7.881,7.881c2.711,2.717,2.711,7.124,0,9.836c-2.716,2.716-7.124,2.716-9.84,0
				l-7.881-7.877l-7.882,7.882c-2.716,2.711-7.119,2.711-9.835,0c-2.717-2.717-2.717-7.124,0-9.841l7.881-7.881l-7.881-7.882
				c-2.717-2.716-2.717-7.119,0-9.835c2.716-2.717,7.119-2.717,9.835,0l7.882,7.881L232.687,670.511z"/>
			<path fill-rule="evenodd" clip-rule="evenodd" fill="#7BCED4" d="M172.342,789.526h43.875c4.892,0,8.894,4.002,8.894,8.896
				v43.874c0,4.896-4.001,8.897-8.894,8.897h-43.875c-4.893,0-8.897-4.002-8.897-8.897v-43.874
				C163.444,793.528,167.449,789.526,172.342,789.526z"/>
			<path fill-rule="evenodd" clip-rule="evenodd" fill="#7BCED4" d="M172.342,894.449h43.875c4.892,0,8.894,4.006,8.894,8.896
				v43.875c0,4.894-4.001,8.893-8.894,8.893h-43.875c-4.893,0-8.897-3.999-8.897-8.893v-43.875
				C163.444,898.455,167.449,894.449,172.342,894.449z"/>
			<path fill-rule="evenodd" clip-rule="evenodd" fill="#33A4AC" d="M198.333,801.922c2.208,0.486,4.269,1.354,6.117,2.537
				l2.809-2.813c0.406-0.401,1.063-0.401,1.46,0l4.278,4.272c0.397,0.403,0.397,1.059,0,1.46l-2.818,2.814
				c1.183,1.843,2.051,3.904,2.541,6.112h3.973c0.568,0,1.03,0.461,1.03,1.029v6.048c0,0.568-0.462,1.034-1.03,1.034h-3.978
				c-0.485,2.209-1.353,4.27-2.536,6.111l2.818,2.814c0.397,0.401,0.397,1.059,0,1.46l-4.278,4.273c-0.397,0.402-1.058,0.402-1.46,0
				l-2.809-2.813c-1.848,1.184-3.909,2.052-6.117,2.535v3.975c0,0.568-0.462,1.035-1.035,1.035h-6.043
				c-0.568,0-1.035-0.467-1.035-1.035v-3.975c-2.208-0.483-4.264-1.357-6.107-2.535l-2.818,2.813c-0.397,0.402-1.053,0.402-1.459,0
				l-4.269-4.273c-0.407-0.401-0.407-1.059-0.005-1.46l2.814-2.814c-1.183-1.842-2.051-3.902-2.532-6.111h-3.983
				c-0.563,0-1.025-0.466-1.025-1.034v-6.048c0-0.568,0.462-1.029,1.025-1.029h3.983c0.48-2.208,1.349-4.27,2.532-6.112
				l-2.814-2.814c-0.401-0.401-0.401-1.057,0.005-1.46l4.269-4.272c0.406-0.401,1.062-0.401,1.459,0l2.818,2.813
				c1.843-1.178,3.899-2.051,6.107-2.537v-3.978c0-0.568,0.467-1.029,1.035-1.029h6.043c0.572,0,1.035,0.461,1.035,1.029V801.922
				L198.333,801.922z M194.277,810.242c-5.581,0-10.113,4.532-10.113,10.119c0,5.584,4.532,10.111,10.113,10.111
				c5.59,0,10.117-4.527,10.117-10.111C204.394,814.774,199.867,810.242,194.277,810.242z"/>
			<g>
				<g>
					<path fill-rule="evenodd" clip-rule="evenodd" fill="#33A4AC" d="M184.848,915.158c2.786,0,5.059-2.277,5.059-5.062
						c0-2.791-2.273-5.064-5.059-5.064c-2.786,0-5.063,2.273-5.063,5.064C179.784,912.881,182.062,915.158,184.848,915.158z"/>
					<path fill-rule="evenodd" clip-rule="evenodd" fill="#33A4AC" d="M184.848,930.346c2.786,0,5.059-2.273,5.059-5.064
						c0-2.785-2.273-5.063-5.059-5.063c-2.786,0-5.063,2.277-5.063,5.063C179.784,928.072,182.062,930.346,184.848,930.346z"/>
					<path fill-rule="evenodd" clip-rule="evenodd" fill="#33A4AC" d="M184.848,945.53c2.786,0,5.059-2.273,5.059-5.058
						c0-2.791-2.273-5.064-5.059-5.064c-2.786,0-5.063,2.273-5.063,5.064C179.784,943.257,182.062,945.53,184.848,945.53z"/>
				</g>
				<g>
					<path fill-rule="evenodd" clip-rule="evenodd" fill="#33A4AC" d="M203.715,915.158c2.786,0,5.059-2.277,5.059-5.062
						c0-2.791-2.273-5.064-5.059-5.064s-5.063,2.273-5.063,5.064C198.651,912.881,200.929,915.158,203.715,915.158z"/>
					<path fill-rule="evenodd" clip-rule="evenodd" fill="#33A4AC" d="M203.715,930.346c2.786,0,5.059-2.273,5.059-5.064
						c0-2.785-2.273-5.063-5.059-5.063s-5.063,2.277-5.063,5.063C198.651,928.072,200.929,930.346,203.715,930.346z"/>
					<path fill-rule="evenodd" clip-rule="evenodd" fill="#33A4AC" d="M203.715,945.53c2.786,0,5.059-2.273,5.059-5.058
						c0-2.791-2.273-5.064-5.059-5.064s-5.063,2.273-5.063,5.064C198.651,943.257,200.929,945.53,203.715,945.53z"/>
				</g>
			</g>
			<g>
				<path fill-rule="evenodd" clip-rule="evenodd" fill="#7BCED4" d="M196.439,863.765c2.171,0,3.945-1.779,3.945-3.955
					c0-2.177-1.773-3.951-3.945-3.951c-2.181,0-3.955,1.774-3.955,3.951C192.484,861.985,194.258,863.765,196.439,863.765z"/>
				<path fill-rule="evenodd" clip-rule="evenodd" fill="#7BCED4" d="M196.439,875.613c2.171,0,3.945-1.772,3.945-3.949
					c0-2.176-1.773-3.951-3.945-3.951c-2.181,0-3.955,1.775-3.955,3.951C192.484,873.841,194.258,875.613,196.439,875.613z"/>
				<path fill-rule="evenodd" clip-rule="evenodd" fill="#7BCED4" d="M196.439,887.473c2.171,0,3.945-1.773,3.945-3.949
					c0-2.181-1.773-3.955-3.945-3.955c-2.181,0-3.955,1.774-3.955,3.955C192.484,885.699,194.258,887.473,196.439,887.473z"/>
			</g>
			<path fill-rule="evenodd" clip-rule="evenodd" fill="#33A4AC" d="M1341.264,1260.164c0.461-9.434,0.706-18.918,0.706-28.462
				c0-317.046-257.015-574.063-574.061-574.063c-317.046,0-574.062,257.017-574.062,574.063c0,9.544,0.245,19.028,0.707,28.462
				H1341.264z"/>
			<g>
				<g>
					<path fill-rule="evenodd" clip-rule="evenodd" fill="#64291F" d="M769.151,472.44L769.151,472.44
						c75.738,0,137.699,61.961,137.699,137.698v133.407c0,45.376-22.25,85.805-56.376,110.933l-0.041,0.036
						c-54.57,50.302-232.019,46.957-290.543-2.961c-58.523-49.918-6.888-126.515,30.981-146.74
						c37.869-20.226,40.576-65.408,40.576-65.408v-29.267C631.448,534.401,693.414,472.44,769.151,472.44z"/>
					<path fill-rule="evenodd" clip-rule="evenodd" fill="#7A423C" d="M853.006,501.115c10.279,7.937,19.408,17.283,27.105,27.747
						c-33.707,30.482-110.904,79.027-246.552,57.272c5.678-31.95,22.471-60.183,46.207-80.523
						C726.622,517.285,795.882,526.501,853.006,501.115z"/>
					<path fill-rule="evenodd" clip-rule="evenodd" fill="#471610" d="M839.096,863.142
						c-48.961,31.191-152.815,35.349-224.053,15.036c-43.713-21.561-49.973-81.721-13.841-117.853
						c36.146-36.146,44.766-52.698,44.766-52.698l57.651-91.029c0,0,165.497-34.797,165.497,100.901
						C869.116,830.27,846.682,857.244,839.096,863.142z"/>
					<rect x="741.825" y="772.13" fill-rule="evenodd" clip-rule="evenodd" fill="#E47C6B" width="54.648" height="78.749"/>
					<path fill-rule="evenodd" clip-rule="evenodd" fill="#E47C6B" d="M668.023,717.522c16.262,0,29.526-13.263,29.526-29.525
						c0-16.257-13.264-29.521-29.526-29.521c-16.262,0-29.521,13.263-29.521,29.521
						C638.502,704.259,651.761,717.522,668.023,717.522z"/>
					<path fill-rule="evenodd" clip-rule="evenodd" fill="#E47C6B" d="M870.28,717.522c16.257,0,29.521-13.263,29.521-29.525
						c0-16.257-13.264-29.521-29.521-29.521c-16.263,0-29.525,13.263-29.525,29.521C840.755,704.259,854.018,717.522,870.28,717.522
						z"/>
					<path fill-rule="evenodd" clip-rule="evenodd" fill="#F9A887" d="M769.151,516.735L769.151,516.735
						c55.619,0,101.124,45.5,101.124,101.124v84.34c0,55.623-45.505,101.128-101.124,101.128l0,0
						c-55.623,0-101.128-45.506-101.128-101.128v-84.34C668.023,562.236,713.528,516.735,769.151,516.735z"/>
					<path fill-rule="evenodd" clip-rule="evenodd" fill="#F08E77" d="M844.428,550.524c16.049,17.916,25.848,41.533,25.848,67.33
						v84.349c0,55.618-45.505,101.124-101.124,101.124l0,0c-5.225,0-10.358-0.402-15.375-1.179
						c121.678-6.277,119.771-137.509,42.429-188.203c-29.428-19.288-53.673-0.739-53.673-0.739l-53.479-10.88l71.058-85.18
						l1.271-0.116C767.257,519.243,802.396,532.572,844.428,550.524z"/>
					<path fill-rule="evenodd" clip-rule="evenodd" fill="#64291F" d="M712.669,657.978L712.669,657.978
						c5.442,0,9.896,4.453,9.896,9.896v12.908c0,5.446-4.454,9.9-9.896,9.9l0,0c-5.447,0-9.9-4.454-9.9-9.9v-12.908
						C702.769,662.431,707.223,657.978,712.669,657.978z"/>
					<path fill-rule="evenodd" clip-rule="evenodd" fill="#64291F" d="M825.629,657.978L825.629,657.978
						c5.447,0,9.9,4.453,9.9,9.896v12.908c0,5.446-4.453,9.9-9.9,9.9l0,0c-5.447,0-9.899-4.454-9.899-9.9v-12.908
						C815.729,662.431,820.182,657.978,825.629,657.978z"/>
					<path fill-rule="evenodd" clip-rule="evenodd" fill="#64291F" d="M698.681,633.234h27.973c2.956,0,5.377,2.42,5.377,5.377l0,0
						c0,2.957-2.421,5.377-5.377,5.377h-27.973c-2.957,0-5.378-2.42-5.378-5.377l0,0
						C693.303,635.654,695.724,633.234,698.681,633.234z"/>
					<path fill-rule="evenodd" clip-rule="evenodd" fill="#64291F" d="M811.646,633.234h27.968c2.957,0,5.378,2.42,5.378,5.377l0,0
						c0,2.957-2.421,5.377-5.378,5.377h-27.968c-2.962,0-5.383-2.42-5.383-5.377l0,0
						C806.263,635.654,808.684,633.234,811.646,633.234z"/>
					<path fill-rule="evenodd" clip-rule="evenodd" fill="#64291F" d="M821.651,569.66c0,0,45.607,24.005,48.624,88.816v12.312
						c0,0,12.552-11.097,21.551-2.965c0,0-10.362-71.479-13.804-79.227c-2.521-5.677-13.563-30.158-19.278-42.826
						c-8.783,6.094-19.047,12.275-30.865,18.045L821.651,569.66z"/>
					<path fill-rule="evenodd" clip-rule="evenodd" fill="#FFFFFF" d="M801.314,714.242c0,17.764-14.399,32.164-32.163,32.164
						c-17.768,0-32.164-14.4-32.164-32.164h0.051c0-3.054,2.5-5.553,5.554-5.553h53.114c3.059,0,5.554,2.499,5.554,5.553H801.314z"
						/>
					<g>
						<path fill-rule="evenodd" clip-rule="evenodd" fill="#E47C6B" d="M706.215,726.291c8.062,0,14.631-6.574,14.631-14.631
							c0-8.062-6.569-14.631-14.631-14.631c-8.062,0-14.631,6.569-14.631,14.631C691.584,719.717,698.154,726.291,706.215,726.291z"
							/>
						<path fill-rule="evenodd" clip-rule="evenodd" fill="#E47C6B" d="M832.083,726.291c8.057,0,14.636-6.574,14.636-14.631
							c0-8.062-6.579-14.631-14.636-14.631s-14.631,6.569-14.631,14.631C817.452,719.717,824.026,726.291,832.083,726.291z"/>
					</g>
					<path fill-rule="evenodd" clip-rule="evenodd" fill="#64291F" d="M863.701,522.787c0,0-49.69,132.654-214.074,142.12
						c0,0-1.95-89.62-0.227-99.95c1.724-10.325,41.307-72.292,81.757-75.738C771.609,485.777,851.652,490.083,863.701,522.787z"/>
					<path fill-rule="evenodd" clip-rule="evenodd" fill="#7A423C" d="M863.701,522.787c0,0-4.703,12.534-15.976,30.163
						c-40.072,24.503-104.575,47.252-199.032,35.336c0.037-11.476,0.231-20.461,0.707-23.33c1.141-6.842,18.91-36.358,42.54-56.497
						c43.958,9.642,102.786,15.352,153.521-4.222C854.341,509.042,860.884,515.136,863.701,522.787z"/>
				</g>
				<g>
					<g>
						<path fill-rule="evenodd" clip-rule="evenodd" fill="#F9A887" d="M855.995,820.679c0,0,39.028-1.77,58.543,35.486
							c19.519,37.253,92.706,173.867,101.138,179.633c8.427,5.767,88.267-81.609,115.769-117.533
							c27.497-35.929,19.51-6.653,29.267-3.991c9.767,2.66-106.1,151.041-132.709,169.667
							c-26.619,18.634-45.409-14.405-68.467-39.681c-23.063-25.279-79.525-115.401-94.604-126.934
							C849.846,905.795,833.838,841.533,855.995,820.679z"/>
						<path fill-rule="evenodd" clip-rule="evenodd" fill="#F9A887" d="M1147.868,914.273l-8.861-5.291
							c0,0-3.566-23.099,8.413-31.081c11.979-7.984,26.615,5.326,44.354,7.986c17.74,2.658,35.042-6.214,45.686-11.979
							c10.644-5.76,11.102,36.815-32.824,38.591c-43.925,1.774-46.899,12.261-46.899,12.261L1147.868,914.273z"/>
						<path fill-rule="evenodd" clip-rule="evenodd" fill="#F9A887" d="M1162.06,886.554l-13.536-9.322
							c0,0,4.44-9.971,16.419-12.858c11.975-2.882,5.544-13.522,12.862-14.854c7.317-1.334,11.975,15.967,4.878,22.398
							c-7.096,6.427-3.862,10.391-3.862,10.391L1162.06,886.554z"/>
					</g>
					<g>
						<path fill-rule="evenodd" clip-rule="evenodd" fill="#E47C6B" d="M932.481,889.976c3.955,7.394,8.242,15.38,12.731,23.688
							c-9.774,13.323-21.084,36.87-10.514,66.538c16.751,46.989,61.412,92.117,75.368,94.906
							c13.956,2.795,43.731-23.728,60.482-46.056c16.743-22.332,77.752-109.877,88.419-115.653h0.005
							c0.509,0.394,1.091,0.693,1.737,0.868c9.767,2.667-106.1,151.048-132.709,169.674c-26.619,18.634-45.409-14.405-68.472-39.685
							c-23.058-25.275-79.521-115.397-94.6-126.93c-0.315-0.24-0.619-0.503-0.934-0.79
							C881.987,901.85,910.722,888.771,932.481,889.976z"/>
						<path fill-rule="evenodd" clip-rule="evenodd" fill="#E47C6B" d="M1243.208,884.119c-1.613,11.207-11.924,27.302-38.572,28.38
							c-43.925,1.768-46.899,12.256-46.899,12.256l-5.124-5.438c2.805-3.1,4.993-5.179,6.356-5.918
							c10.668-5.77,12.987-7.658,38.585-6.236C1223.144,908.586,1236.296,900.141,1243.208,884.119z"/>
					</g>
				</g>
				<g>
					<g>
						<path fill-rule="evenodd" clip-rule="evenodd" fill="#F9A887" d="M679.823,820.679c0,0-39.029-1.77-58.543,35.486
							c-19.523,37.253-92.707,173.867-101.138,179.633c-8.426,5.767-88.267-81.609-115.764-117.533
							c-27.502-35.929-19.515-6.653-29.276-3.991c-9.762,2.66,106.104,151.041,132.714,169.667
							c26.619,18.634,45.404-14.405,68.466-39.681c23.063-25.279,79.521-115.401,94.605-126.934
							C685.971,905.795,701.979,841.533,679.823,820.679z"/>
						<path fill-rule="evenodd" clip-rule="evenodd" fill="#F9A887" d="M387.95,914.273l8.86-5.291c0,0,3.567-23.099-8.413-31.081
							c-11.979-7.984-26.615,5.326-44.355,7.986c-17.74,2.658-35.037-6.214-45.685-11.979c-10.645-5.76-11.102,36.815,32.823,38.591
							c43.921,1.774,46.901,12.261,46.901,12.261L387.95,914.273z"/>
						<path fill-rule="evenodd" clip-rule="evenodd" fill="#F9A887" d="M373.758,886.554l13.536-9.322c0,0-4.44-9.971-16.419-12.858
							c-11.975-2.882-5.543-13.522-12.861-14.854c-7.318-1.334-11.975,15.967-4.878,22.398c7.096,6.427,3.862,10.391,3.862,10.391
							L373.758,886.554z"/>
					</g>
					<g>
						<path fill-rule="evenodd" clip-rule="evenodd" fill="#E47C6B" d="M603.336,889.976c-3.955,7.394-8.241,15.38-12.732,23.688
							c9.776,13.323,21.084,36.87,10.515,66.538c-16.752,46.989-61.412,92.117-75.368,94.906
							c-13.957,2.795-43.731-23.728-60.483-46.056c-16.742-22.332-77.751-109.877-88.423-115.653l0,0
							c-0.514,0.394-1.09,0.693-1.742,0.868c-9.762,2.667,106.104,151.048,132.714,169.674
							c26.619,18.634,45.404-14.405,68.466-39.685c23.063-25.275,79.521-115.397,94.605-126.93c0.305-0.24,0.619-0.503,0.933-0.79
							C653.831,901.85,625.096,888.771,603.336,889.976z"/>
						<path fill-rule="evenodd" clip-rule="evenodd" fill="#E47C6B" d="M292.605,884.119c1.617,11.207,11.929,27.302,38.575,28.38
							c43.921,1.768,46.901,12.256,46.901,12.256l5.123-5.438c-2.813-3.1-4.994-5.179-6.361-5.918
							c-10.663-5.77-12.982-7.658-38.581-6.236C312.674,908.586,299.521,900.141,292.605,884.119z"/>
					</g>
				</g>
				<path fill-rule="evenodd" clip-rule="evenodd" fill="#DB4342" d="M863.055,932.059c0,0,25.585,33.955,30.703,36.751
					c5.119,2.791,10.002-3.256,13.027-11.863c3.021-8.608,22.768-45.576,35.804-48.139c0,0,3.969-3.964,1.415-9.313
					c-2.56-5.35-25.747-78.82-88.009-78.82h-11.952L863.055,932.059z"/>
				<path fill-rule="evenodd" clip-rule="evenodd" fill="#F16464" d="M769.151,820.674h77.747c0,0,39.088-0.591,32.127,49.434
					c-6.962,50.027-21.256,294.2-21.256,294.2s-4.015,10.123-17.671,10.123s-70.947,0-70.947,0s-57.291,0-70.947,0
					s-17.671-10.123-17.671-10.123s-20.988-244.173-27.95-294.2c-6.962-50.024,32.126-49.434,32.126-49.434H769.151z"/>
				<path fill-rule="evenodd" clip-rule="evenodd" fill="#DB4342" d="M832.508,820.674h14.391c0,0,39.088-0.591,32.127,49.438
					c-6.962,50.023-21.256,294.196-21.256,294.196s-4.015,10.123-17.675,10.123h-7.577c-55.863-4.345-113.676-14.636-153.314-25.462
					c-0.758-8.764-1.811-20.838-3.073-35.134c129.685-22.489,167.446-142.479,175.097-208.803
					C859.252,835.491,832.508,820.674,832.508,820.674z"/>
				<path fill-rule="evenodd" clip-rule="evenodd" fill="#FFFFFF" d="M850.59,820.975c-3.316,41.871-38.345,74.818-81.06,74.818
					c-42.826,0-77.918-33.106-81.092-75.119h80.713h77.747C846.898,820.674,848.326,820.656,850.59,820.975z"/>
				<path fill-rule="evenodd" clip-rule="evenodd" fill="#BDBBBD" d="M850.59,820.975c-0.545,6.847-1.939,13.458-4.074,19.722
					c-5.946-15.546-14.008-20.022-14.008-20.022h14.391h0.006l0,0h0.004h0.004h0.01h0.005h0.009h0.014h0.014h0.02h0.019h0.009h0.014
					h0.023h0.023h0.027l0.028,0.005h0.022h0.009h0.033l0.037,0.006h0.036h0.037h0.037l0,0h0.046l0.042,0.004h0.047h0.041
					l0.055,0.004h0.01h0.037l0.056,0.005h0.055h0.056l0.056,0.01h0.023h0.032l0.064,0.005l0.064,0.004h0.064l0.064,0.004h0.037
					l0.028,0.011h0.069l0.069,0.004l0.074,0.005l0.073,0.004l0.064,0.01h0.01l0.074,0.005l0.082,0.005l0.074,0.008l0.083,0.006
					l0.084,0.009h0.01l0.073,0.009l0.092,0.011l0.084,0.004l0.088,0.009l0.087,0.015h0.028l0.064,0.004l0.093,0.014l0.092,0.01
					l0.093,0.009l0.102,0.015l0.051,0.004l0.046,0.005l0.098,0.015l0.102,0.008l0.102,0.016l0.101,0.013L850.59,820.975z"/>
				<path fill-rule="evenodd" clip-rule="evenodd" fill="#E47C6B" d="M769.53,812.081l29.466,8.593h26.337
					c0,30.823-24.988,55.808-55.803,55.808c-30.823,0-55.813-24.984-55.813-55.808h26.246L769.53,812.081z"/>
				<path fill-rule="evenodd" clip-rule="evenodd" fill="#F16464" d="M672.763,932.059c0,0-25.584,33.955-30.704,36.751
					c-5.119,2.791-10.007-3.256-13.028-11.863c-3.021-8.608-22.767-45.576-35.804-48.139c0,0-3.968-3.964-1.414-9.313
					c2.559-5.35,25.746-78.82,88.008-78.82L672.763,932.059z"/>
				<path fill-rule="evenodd" clip-rule="evenodd" fill="#DB4342" d="M660.89,947.419c-7.424,9.394-16.082,19.891-18.831,21.391
					c-5.119,2.791-10.007-3.256-13.028-11.863c-0.767-2.189-2.62-6.214-5.165-11.031c15.171-3.414,31.572-11.547,33.826-30.641
					L660.89,947.419z"/>
				<g>
					<path fill-rule="evenodd" clip-rule="evenodd" fill="#BAC6C9" d="M582.256,1184.5h383.803c8.611,0,15.661,7.051,15.661,15.662
						v16.729c0,8.614-7.05,15.66-15.661,15.66H582.256c-8.616,0-15.657-7.046-15.657-15.66v-16.729
						C566.599,1191.551,573.64,1184.5,582.256,1184.5z"/>
					<path fill-rule="evenodd" clip-rule="evenodd" fill="#CFD6D8" d="M588.857,1205.858h370.595c2.394,0,4.352,1.954,4.352,4.349
						v4.65c0,2.394-1.958,4.348-4.352,4.348H588.857c-2.393,0-4.347-1.954-4.347-4.348v-4.65
						C584.51,1207.813,586.465,1205.858,588.857,1205.858z"/>
					<path fill-rule="evenodd" clip-rule="evenodd" fill="#FFFFFF" d="M603.613,910.442h341.684
						c11.744,0,21.353,9.609,21.353,21.356V1184.5c0,11.75-9.608,21.358-21.353,21.358H603.613
						c-11.744,0-21.353-9.608-21.353-21.358V931.799C582.26,920.052,591.869,910.442,603.613,910.442z"/>
					<path fill-rule="evenodd" clip-rule="evenodd" fill="#E2E1E3" d="M868.653,910.442h76.644c11.744,0,21.353,9.609,21.353,21.356
						V1184.5c0,11.745-9.608,21.358-21.353,21.358H603.613c-11.744,0-21.353-9.613-21.353-21.358v-7.843
						C916.188,1192.23,987.91,983.199,868.653,910.442z"/>
					<path fill-rule="evenodd" clip-rule="evenodd" fill="#BAC4C6" d="M774.455,1028.965c6.311,0,12.15,1.999,16.928,5.405
						c-4.473,3.723-7.318,9.328-7.318,15.597c0,10.107,7.396,18.489,17.069,20.031c-4.54,10.214-14.777,17.338-26.679,17.338
						c-16.118,0-29.184-13.07-29.184-29.188S758.337,1028.965,774.455,1028.965z"/>
				</g>
			</g>
			<g>
				<path fill-rule="evenodd" clip-rule="evenodd" fill="#AD4C30" d="M264.761,1345.452h1006.294
					c31.725,0,57.679-25.949,57.679-57.676l0,0c0-6.888-1.229-13.499-3.464-19.634H210.548c-2.235,6.135-3.465,12.746-3.465,19.634
					l0,0C207.083,1319.503,233.038,1345.452,264.761,1345.452z"/>
				<path fill-rule="evenodd" clip-rule="evenodd" fill="#DA7E49" d="M167.205,1232.552h1201.414
					c15.186,0,27.612,12.423,27.612,27.608v0.004c0,15.188-12.427,27.612-27.612,27.612H167.205
					c-15.19,0-27.613-12.425-27.613-27.612v-0.004C139.592,1244.975,152.014,1232.552,167.205,1232.552z"/>
				<path fill-rule="evenodd" clip-rule="evenodd" fill="#C4663E" d="M1371.371,1232.691c-0.407,14.838-12.668,26.854-27.604,26.854
					H142.359c-0.933,0-1.848-0.046-2.758-0.137c-0.005,0.249-0.009,0.502-0.009,0.756c0,15.188,12.422,27.612,27.613,27.612h39.878
					h1121.651h39.884c15.186,0,27.612-12.425,27.612-27.612C1396.23,1245.902,1385.276,1234.082,1371.371,1232.691z"/>
				<path fill-rule="evenodd" clip-rule="evenodd" fill="#752C23" d="M1267.227,1300.662c26.115,0,40.399,2.665,28.458,27.959
					c-2.772,5.867-6.718,11.019-11.513,15.32c25.459-5.979,44.563-28.947,44.563-56.165H207.083c0,4.427,0.508,8.737,1.459,12.886
					H1267.227z"/>
			</g>
			<g>
				<path fill-rule="evenodd" clip-rule="evenodd" fill="#7BCED4" d="M1290.689,736.154h43.875c4.897,0,8.898,4.006,8.898,8.898
					v43.875c0,4.893-4.001,8.897-8.898,8.897h-43.875c-4.892,0-8.893-4.005-8.893-8.897v-43.875
					C1281.797,740.16,1285.798,736.154,1290.689,736.154z"/>
				<path fill-rule="evenodd" clip-rule="evenodd" fill="#7BCED4" d="M1290.689,841.08h43.875c4.897,0,8.898,4.005,8.898,8.898
					v43.875c0,4.891-4.001,8.893-8.898,8.893h-43.875c-4.892,0-8.893-4.002-8.893-8.893v-43.875
					C1281.797,845.085,1285.798,841.08,1290.689,841.08z"/>
				<path fill-rule="evenodd" clip-rule="evenodd" fill="#33A4AC" d="M1316.682,748.554c2.208,0.485,4.273,1.354,6.111,2.536
					l2.813-2.813c0.407-0.401,1.059-0.401,1.46,0l4.278,4.273c0.401,0.401,0.401,1.059,0,1.46l-2.813,2.814
					c1.183,1.843,2.051,3.902,2.537,6.111h3.973c0.567,0,1.03,0.462,1.03,1.03v6.047c0,0.568-0.463,1.035-1.03,1.035h-3.979
					c-0.48,2.204-1.354,4.269-2.531,6.112l2.813,2.814c0.401,0.401,0.401,1.057,0,1.453l-4.278,4.279
					c-0.401,0.401-1.058,0.401-1.46,0l-2.813-2.813c-1.838,1.182-3.903,2.05-6.111,2.536v3.973c0,0.568-0.463,1.035-1.031,1.035
					h-6.047c-0.568,0-1.029-0.467-1.029-1.035v-3.977c-2.209-0.482-4.27-1.354-6.113-2.532l-2.813,2.813
					c-0.402,0.401-1.063,0.401-1.46,0l-4.278-4.279c-0.401-0.396-0.401-1.052,0-1.453l2.814-2.814
					c-1.184-1.844-2.052-3.908-2.537-6.112h-3.973c-0.568,0-1.031-0.467-1.031-1.035v-6.047c0-0.568,0.463-1.03,1.031-1.03h3.973
					c0.485-2.209,1.354-4.269,2.537-6.111l-2.814-2.814c-0.401-0.401-0.401-1.059,0-1.46l4.278-4.273
					c0.397-0.401,1.053-0.401,1.46,0l2.813,2.813c1.844-1.182,3.904-2.051,6.113-2.536v-3.978c0-0.568,0.461-1.03,1.029-1.03h6.047
					c0.568,0,1.031,0.462,1.031,1.03V748.554L1316.682,748.554z M1312.629,756.875c-5.589,0-10.117,4.532-10.117,10.116
					c0,5.586,4.528,10.114,10.117,10.114c5.587,0,10.113-4.528,10.113-10.114C1322.742,761.407,1318.216,756.875,1312.629,756.875z"
					/>
				<g>
					<g>
						<path fill-rule="evenodd" clip-rule="evenodd" fill="#33A4AC" d="M1303.195,861.787c2.787,0,5.06-2.273,5.06-5.064
							c0-2.785-2.272-5.059-5.06-5.059c-2.79,0-5.062,2.273-5.062,5.059C1298.134,859.514,1300.405,861.787,1303.195,861.787z"/>
						<path fill-rule="evenodd" clip-rule="evenodd" fill="#33A4AC" d="M1303.195,876.976c2.787,0,5.06-2.277,5.06-5.062
							c0-2.787-2.272-5.064-5.06-5.064c-2.79,0-5.062,2.277-5.062,5.064C1298.134,874.698,1300.405,876.976,1303.195,876.976z"/>
						<path fill-rule="evenodd" clip-rule="evenodd" fill="#33A4AC" d="M1303.195,892.163c2.787,0,5.06-2.273,5.06-5.061
							c0-2.789-2.272-5.063-5.06-5.063c-2.79,0-5.062,2.273-5.062,5.063C1298.134,889.89,1300.405,892.163,1303.195,892.163z"/>
					</g>
					<g>
						<path fill-rule="evenodd" clip-rule="evenodd" fill="#33A4AC" d="M1322.063,861.787c2.786,0,5.059-2.273,5.059-5.064
							c0-2.785-2.272-5.059-5.059-5.059c-2.79,0-5.063,2.273-5.063,5.059C1317.001,859.514,1319.273,861.787,1322.063,861.787z"/>
						<path fill-rule="evenodd" clip-rule="evenodd" fill="#33A4AC" d="M1322.063,876.976c2.786,0,5.059-2.277,5.059-5.062
							c0-2.787-2.272-5.064-5.059-5.064c-2.79,0-5.063,2.277-5.063,5.064C1317.001,874.698,1319.273,876.976,1322.063,876.976z"/>
						<path fill-rule="evenodd" clip-rule="evenodd" fill="#33A4AC" d="M1322.063,892.163c2.786,0,5.059-2.273,5.059-5.061
							c0-2.789-2.272-5.063-5.059-5.063c-2.79,0-5.063,2.273-5.063,5.063C1317.001,889.89,1319.273,892.163,1322.063,892.163z"/>
					</g>
				</g>
				<g>
					<path fill-rule="evenodd" clip-rule="evenodd" fill="#7BCED4" d="M1314.782,810.391c2.181,0,3.955-1.774,3.955-3.95
						c0-2.175-1.774-3.95-3.955-3.95c-2.176,0-3.95,1.775-3.95,3.95C1310.832,808.616,1312.606,810.391,1314.782,810.391z"/>
					<path fill-rule="evenodd" clip-rule="evenodd" fill="#7BCED4" d="M1314.782,822.245c2.181,0,3.955-1.774,3.955-3.95
						c0-2.177-1.774-3.949-3.955-3.949c-2.176,0-3.95,1.772-3.95,3.949C1310.832,820.471,1312.606,822.245,1314.782,822.245z"/>
					<path fill-rule="evenodd" clip-rule="evenodd" fill="#7BCED4" d="M1314.782,834.101c2.181,0,3.955-1.774,3.955-3.951
						c0-2.176-1.774-3.95-3.955-3.95c-2.176,0-3.95,1.774-3.95,3.95C1310.832,832.326,1312.606,834.101,1314.782,834.101z"/>
				</g>
			</g>
			<g>
				<path fill-rule="evenodd" clip-rule="evenodd" fill="#33A4AC" d="M481.793,451.114c0.014,0.111,0.019,0.222,0.019,0.333
					c0,0.116-0.005,0.222-0.015,0.333v38.196c0.015,4.329,1.729,8.247,4.509,11.111l0.176,0.162c2.854,2.86,6.8,4.638,11.152,4.67
					l0.125-0.004c4.403,0,8.39-1.783,11.277-4.666c2.116-2.116,3.64-4.828,4.301-7.859v-0.004l0.079-0.389v-0.004l0.037-0.189
					v-0.005l0.065-0.393v-0.005l0.028-0.189v-0.005l0.027-0.198v-0.005l0.027-0.194v-0.005l0.019-0.194v-0.005l0.018-0.198v-0.005
					l0.019-0.199l0,0l0.014-0.203l0,0l0.014-0.203l0,0l0.01-0.204v-0.004l0.004-0.203l0.005-0.204v-0.208v-67.001h-38.368
					c1.945,2.005,3.535,4.37,4.643,6.972c1.118,2.615,1.755,5.489,1.816,8.51V451.114L481.793,451.114z M520.659,489.972v0.004
					v0.287v0.009l-0.009,0.282v0.014l-0.009,0.272v0.019l-0.009,0.268v0.023l-0.018,0.263v0.033l-0.019,0.254v0.037l-0.023,0.25
					l-0.004,0.037l-0.023,0.245l-0.004,0.046l-0.023,0.235l-0.005,0.051l-0.028,0.231l-0.009,0.056v0.009l-0.083,0.564l-0.028,0.208
					l-0.014,0.074l-0.032,0.208l-0.019,0.074c-0.817,4.583-2.993,8.69-6.098,11.892c39.314,0,78.722-0.268,118.027,0.009
					c4.324,0,8.242-1.714,11.102-4.495l0.167-0.18c2.888-2.883,4.671-6.87,4.671-11.273V311.915H520.659v107.582V489.972
					L520.659,489.972z M498.359,512.873l-0.605,0.009c-6.325,0-12.048-2.568-16.192-6.713l-0.199-0.216
					c-4.028-4.135-6.509-9.771-6.509-15.976l0.004-35.051h-35.374c-1.917,0-3.479-1.557-3.479-3.479v-12.529
					c0-6.325,2.569-12.053,6.708-16.193c4.14-4.144,9.868-6.708,16.198-6.708h0.022h54.769V308.436c0-1.917,1.562-3.479,3.478-3.479
					h134.466c1.917,0,3.479,1.561,3.479,3.479v181.532c0,6.333-2.564,12.063-6.708,16.201l-0.218,0.204
					c-4.135,4.028-9.771,6.509-15.971,6.509C589.319,511.025,541.818,512.854,498.359,512.873L498.359,512.873z M461.387,423.165
					l-2.458-0.189h-0.018l0,0c-4.407,0-8.39,1.783-11.277,4.671c-2.888,2.883-4.671,6.87-4.671,11.272v9.05h31.9l0.005-9.374
					c-0.046-2.093-0.49-4.094-1.275-5.928c-0.804-1.894-1.968-3.599-3.4-5.026c-1.497-1.478-3.248-2.67-5.174-3.465
					C463.877,423.705,462.657,423.358,461.387,423.165z"/>
				<path fill-rule="evenodd" clip-rule="evenodd" fill="#33A4AC" d="M439.484,451.447h38.848l-0.005-12.922
					c-0.101-5.211-2.254-9.914-5.687-13.347c-2.874-2.869-6.644-4.846-10.856-5.47l-2.601-0.213h-0.272
					c-10.732,0-19.427,8.695-19.427,19.422V451.447z"/>
				<g>
					<g>
						<path fill-rule="evenodd" clip-rule="evenodd" fill="#33A4AC" d="M579.959,338.511h-43.593c-0.952,0-1.723-0.777-1.723-1.729
							s0.771-1.723,1.723-1.723h43.593c0.952,0,1.728,0.771,1.728,1.723S580.911,338.511,579.959,338.511z"/>
						<path fill-rule="evenodd" clip-rule="evenodd" fill="#33A4AC" d="M579.959,347.732h-43.593c-0.952,0-1.723-0.776-1.723-1.728
							c0-0.952,0.771-1.723,1.723-1.723h43.593c0.952,0,1.728,0.771,1.728,1.723C581.688,346.956,580.911,347.732,579.959,347.732z"
							/>
						<path fill-rule="evenodd" clip-rule="evenodd" fill="#33A4AC" d="M579.959,356.431h-43.593c-0.952,0-1.723-0.771-1.723-1.723
							c0-0.952,0.771-1.723,1.723-1.723h43.593c0.952,0,1.728,0.771,1.728,1.723C581.688,355.66,580.911,356.431,579.959,356.431z"
							/>
						<path fill-rule="evenodd" clip-rule="evenodd" fill="#33A4AC" d="M561.425,365.652h-25.058c-0.952,0-1.723-0.771-1.723-1.723
							s0.771-1.723,1.723-1.723h25.058c0.952,0,1.723,0.771,1.723,1.723S562.376,365.652,561.425,365.652z"/>
						<path fill-rule="evenodd" clip-rule="evenodd" fill="#33A4AC" d="M635.444,338.511h-43.592c-0.952,0-1.729-0.777-1.729-1.729
							s0.776-1.723,1.729-1.723h43.592c0.952,0,1.723,0.771,1.723,1.723S636.396,338.511,635.444,338.511z"/>
						<path fill-rule="evenodd" clip-rule="evenodd" fill="#33A4AC" d="M635.444,347.732h-43.592c-0.952,0-1.729-0.776-1.729-1.728
							c0-0.952,0.776-1.723,1.729-1.723h43.592c0.952,0,1.723,0.771,1.723,1.723C637.167,346.956,636.396,347.732,635.444,347.732z"
							/>
						<path fill-rule="evenodd" clip-rule="evenodd" fill="#33A4AC" d="M635.444,356.431h-43.592c-0.952,0-1.729-0.771-1.729-1.723
							c0-0.952,0.776-1.723,1.729-1.723h43.592c0.952,0,1.723,0.771,1.723,1.723C637.167,355.66,636.396,356.431,635.444,356.431z"
							/>
						<path fill-rule="evenodd" clip-rule="evenodd" fill="#33A4AC" d="M627.295,365.652h-35.443c-0.952,0-1.729-0.771-1.729-1.723
							s0.776-1.723,1.729-1.723h35.443c0.952,0,1.727,0.771,1.727,1.723S628.247,365.652,627.295,365.652z"/>
					</g>
					<rect x="532.283" y="376.994" fill-rule="evenodd" clip-rule="evenodd" fill="#33A4AC" width="16.064" height="45.354"/>
					<rect x="560.63" y="393.806" fill-rule="evenodd" clip-rule="evenodd" fill="#33A4AC" width="16.059" height="28.542"/>
					<rect x="588.622" y="380.315" fill-rule="evenodd" clip-rule="evenodd" fill="#33A4AC" width="16.063" height="42.032"/>
					<rect x="616.614" y="406.354" fill-rule="evenodd" clip-rule="evenodd" fill="#33A4AC" width="16.068" height="15.994"/>
					<path fill-rule="evenodd" clip-rule="evenodd" fill="#33A4AC" d="M556.907,455.79c-6.477,0-11.734,5.252-11.734,11.735
						c0,6.481,5.257,11.739,11.734,11.739c6.486,0,11.739-5.258,11.739-11.739C568.646,461.042,563.393,455.79,556.907,455.79z"/>
					<path fill-rule="evenodd" clip-rule="evenodd" fill="#33A4AC" d="M574.906,466.287c0.027,0.411,0.064,0.822,0.064,1.238
						c0,9.974-8.085,18.059-18.063,18.059c-0.055,0-0.115-0.005-0.176-0.005v12.95c0.061,0,0.121,0,0.176,0
						c17.125,0,31.008-13.878,31.008-31.003c0-0.417-0.019-0.827-0.033-1.238H574.906z"/>
					<path fill-rule="evenodd" clip-rule="evenodd" fill="#33A4AC" d="M556.731,449.475v-12.95
						c-16.622,0.092-30.148,13.273-30.795,29.761h12.972C539.545,456.95,547.261,449.567,556.731,449.475z"/>
					<circle fill-rule="evenodd" clip-rule="evenodd" fill="#33A4AC" cx="600.788" cy="445.381" r="4.484"/>
					<circle fill-rule="evenodd" clip-rule="evenodd" fill="#33A4AC" cx="600.788" cy="461.075" r="4.484"/>
					<path fill-rule="evenodd" clip-rule="evenodd" fill="#33A4AC" d="M605.272,476.307c0,2.481-2.01,4.486-4.486,4.486
						c-2.477,0-4.481-2.005-4.481-4.486c0-2.476,2.005-4.481,4.481-4.481C603.262,471.825,605.272,473.831,605.272,476.307z"/>
					<path fill-rule="evenodd" clip-rule="evenodd" fill="#33A4AC" d="M605.272,491.391c0,2.476-2.01,4.486-4.486,4.486
						c-2.477,0-4.481-2.01-4.481-4.486c0-2.477,2.005-4.481,4.481-4.481C603.262,486.909,605.272,488.914,605.272,491.391z"/>
					<g>
						<path fill-rule="evenodd" clip-rule="evenodd" fill="#33A4AC" d="M637.523,443.256H615.02c-0.873,0-1.594,0.716-1.594,1.594
							c0,0.874,0.721,1.594,1.594,1.594h22.503c0.878,0,1.589-0.721,1.589-1.594C639.112,443.972,638.401,443.256,637.523,443.256z"
							/>
						<path fill-rule="evenodd" clip-rule="evenodd" fill="#33A4AC" d="M637.523,460.086H615.02c-0.873,0-1.594,0.716-1.594,1.594
							c0,0.877,0.721,1.594,1.594,1.594h22.503c0.878,0,1.589-0.716,1.589-1.594C639.112,460.803,638.401,460.086,637.523,460.086z"
							/>
						<path fill-rule="evenodd" clip-rule="evenodd" fill="#33A4AC" d="M637.523,474.792H615.02c-0.873,0-1.594,0.715-1.594,1.593
							c0,0.877,0.721,1.594,1.594,1.594h22.503c0.878,0,1.589-0.716,1.589-1.594C639.112,475.507,638.401,474.792,637.523,474.792z"
							/>
						<path fill-rule="evenodd" clip-rule="evenodd" fill="#33A4AC" d="M637.523,490.203H615.02c-0.873,0-1.594,0.716-1.594,1.594
							c0,0.878,0.721,1.594,1.594,1.594h22.503c0.878,0,1.589-0.716,1.589-1.594C639.112,490.919,638.401,490.203,637.523,490.203z"
							/>
					</g>
					<path fill-rule="evenodd" clip-rule="evenodd" fill="#33A4AC" d="M635.389,322.757h-98.962c-0.956,0-1.728-0.771-1.728-1.727
						c0-0.952,0.772-1.724,1.728-1.724h98.962c0.952,0,1.728,0.771,1.728,1.724C637.116,321.986,636.34,322.757,635.389,322.757z"/>
				</g>
			</g>
			<path fill-rule="evenodd" clip-rule="evenodd" fill="#7BCED4" d="M466.788,794.899c3.326,0.727,6.436,2.039,9.212,3.816
				l4.236-4.235c0.61-0.61,1.598-0.61,2.199,0l6.44,6.439c0.609,0.605,0.609,1.594,0,2.194l-4.236,4.241
				c1.778,2.777,3.091,5.881,3.821,9.207h5.987c0.859,0,1.553,0.698,1.553,1.557v9.106c0,0.859-0.693,1.557-1.553,1.557h-5.987
				c-0.73,3.326-2.042,6.431-3.821,9.208l4.236,4.24c0.609,0.604,0.609,1.594,0,2.199l-6.44,6.44c-0.601,0.604-1.589,0.604-2.199,0
				L476,846.634c-2.776,1.779-5.886,3.085-9.212,3.815v5.992c0,0.854-0.698,1.553-1.552,1.553h-9.11
				c-0.855,0-1.557-0.699-1.557-1.553v-5.996c-3.322-0.727-6.426-2.039-9.203-3.815l-4.241,4.24c-0.605,0.604-1.594,0.604-2.2,0
				l-6.44-6.44c-0.609-0.605-0.609-1.595,0-2.199l4.236-4.24c-1.778-2.777-3.09-5.882-3.82-9.208h-5.988
				c-0.854,0-1.552-0.697-1.552-1.557v-9.106c0-0.858,0.697-1.557,1.552-1.557h5.988c0.73-3.326,2.042-6.43,3.82-9.207l-4.236-4.241
				c-0.609-0.601-0.609-1.589,0-2.194l6.44-6.439c0.605-0.61,1.59-0.61,2.2,0l4.241,4.235c2.777-1.777,5.881-3.09,9.203-3.816
				v-5.992c0-0.857,0.702-1.556,1.557-1.556h9.11c0.854,0,1.552,0.698,1.552,1.556V794.899L466.788,794.899z M460.685,807.435
				c-8.417,0-15.241,6.822-15.241,15.24c0,8.413,6.824,15.236,15.241,15.236c8.413,0,15.237-6.823,15.237-15.236
				C475.921,814.257,469.098,807.435,460.685,807.435z"/>
			<path fill-rule="evenodd" clip-rule="evenodd" fill="#3DBCC4" d="M523.588,845.778c2.393,0.521,4.625,1.464,6.625,2.744
				l3.044-3.049c0.439-0.435,1.146-0.435,1.58,0l4.634,4.634c0.434,0.436,0.434,1.145,0,1.58l-3.049,3.045
				c1.28,2.001,2.222,4.231,2.744,6.623h4.306c0.619,0,1.118,0.501,1.118,1.12v6.546c0,0.614-0.499,1.121-1.118,1.121h-4.306
				c-0.522,2.39-1.464,4.621-2.744,6.622l3.049,3.045c0.434,0.437,0.434,1.145,0,1.58l-4.634,4.634c-0.435,0.433-1.141,0.433-1.58,0
				l-3.044-3.049c-2,1.277-4.232,2.22-6.625,2.748v4.304c0,0.615-0.499,1.12-1.118,1.12h-6.551c-0.614,0-1.118-0.505-1.118-1.12
				v-4.31c-2.389-0.522-4.62-1.465-6.62-2.742l-3.049,3.049c-0.434,0.433-1.141,0.433-1.58,0l-4.634-4.634
				c-0.435-0.436-0.435-1.147,0-1.58l3.049-3.045c-1.28-2.001-2.218-4.232-2.744-6.622h-4.306c-0.619,0-1.118-0.507-1.118-1.121
				v-6.546c0-0.619,0.499-1.12,1.118-1.12h4.306c0.526-2.392,1.464-4.622,2.744-6.623l-3.049-3.045c-0.435-0.436-0.435-1.145,0-1.58
				l4.634-4.634c0.439-0.435,1.146-0.435,1.58,0l3.049,3.049c2-1.28,4.231-2.223,6.62-2.744v-4.311c0-0.614,0.504-1.117,1.118-1.117
				h6.551c0.619,0,1.118,0.503,1.118,1.117V845.778L523.588,845.778z M519.195,854.791c-6.047,0-10.954,4.906-10.954,10.959
				c0,6.047,4.906,10.953,10.954,10.953c6.052,0,10.954-4.906,10.954-10.953C530.149,859.697,525.247,854.791,519.195,854.791z"/>
			<path fill-rule="evenodd" clip-rule="evenodd" fill="#7BCED4" d="M1054.985,795.183h-73.054c-3.88,0-7.059,3.173-7.059,7.059l0,0
				c0,3.882,3.179,7.06,7.059,7.06h73.054c3.886,0,7.06-3.178,7.06-7.06l0,0C1062.045,798.355,1058.871,795.183,1054.985,795.183z"
				/>
			<path fill-rule="evenodd" clip-rule="evenodd" fill="#7BCED4" d="M1054.985,817.215h-41.61c-3.881,0-7.06,3.174-7.06,7.059l0,0
				c0,3.881,3.179,7.06,7.06,7.06h41.61c3.886,0,7.06-3.179,7.06-7.06l0,0C1062.045,820.389,1058.871,817.215,1054.985,817.215z"/>
			<path fill-rule="evenodd" clip-rule="evenodd" fill="#7BCED4" d="M1054.985,839.245h-98.573c-3.89,0-7.064,3.176-7.064,7.061l0,0
				c0,3.88,3.175,7.06,7.064,7.06h98.573c3.886,0,7.06-3.18,7.06-7.06l0,0C1062.045,842.421,1058.871,839.245,1054.985,839.245z"/>
			<path fill-rule="evenodd" clip-rule="evenodd" fill="#7BCED4" d="M991.348,817.215h-34.936c-3.89,0-7.064,3.174-7.064,7.059l0,0
				c0,3.881,3.175,7.06,7.064,7.06h34.936c3.88,0,7.059-3.179,7.059-7.06l0,0C998.406,820.389,995.228,817.215,991.348,817.215z"/>
			<path fill-rule="evenodd" clip-rule="evenodd" fill="#7BCED4" d="M960.117,795.183h-3.705c-3.886,0-7.059,3.173-7.059,7.059l0,0
				c0,3.882,3.173,7.06,7.059,7.06h3.705c3.881,0,7.059-3.178,7.059-7.06l0,0C967.176,798.355,963.998,795.183,960.117,795.183z"/>
			<g>
				<path fill-rule="evenodd" clip-rule="evenodd" fill="#33A4AC" d="M886.002,467.34c0-1.917,1.557-3.479,3.479-3.479
					s3.474,1.561,3.474,3.479c0,5.719,2.31,10.888,6.043,14.617l0.013,0.014c3.729,3.729,8.898,6.038,14.613,6.038
					c5.71,0,10.885-2.309,14.626-6.042c3.733-3.742,6.043-8.911,6.043-14.626c0-1.917,1.562-3.479,3.484-3.479
					c1.916,0,3.474,1.561,3.474,3.479c0,7.623-3.096,14.524-8.09,19.523l-0.014,0.014c-4.998,4.999-11.901,8.089-19.523,8.089
					c-7.604,0-14.501-3.081-19.505-8.07l-0.027-0.032C889.092,481.86,886.002,474.953,886.002,467.34z"/>
				<path fill-rule="evenodd" clip-rule="evenodd" fill="#33A4AC" d="M890.09,442.217c0.037,1.913-1.487,3.493-3.4,3.53
					c-1.912,0.037-3.492-1.483-3.529-3.396c-0.333-15.185-6.163-24.494-11.809-33.503c-5.973-9.54-11.767-18.789-11.767-33.826
					c0-14.922,6.052-28.436,15.827-38.211c9.78-9.78,23.29-15.827,38.211-15.827c14.922,0,28.439,6.047,38.216,15.827
					c9.775,9.776,15.827,23.294,15.827,38.211c0,15.038-5.793,24.286-11.771,33.826c-5.646,9.009-11.476,18.313-11.808,33.503
					c-0.038,1.913-1.617,3.433-3.53,3.396c-1.912-0.037-3.437-1.617-3.399-3.53c0.374-17.098,6.726-27.225,12.871-37.037
					c5.424-8.658,10.681-17.052,10.681-30.158c0-13-5.276-24.771-13.795-33.291s-20.29-13.791-33.291-13.791
					c-13,0-24.771,5.271-33.29,13.791s-13.79,20.291-13.79,33.291c0,13.106,5.256,21.5,10.681,30.158
					C883.372,414.992,889.72,425.124,890.09,442.217z"/>
				<path fill-rule="evenodd" clip-rule="evenodd" fill="#33A4AC" d="M888.926,438.581h49.404c4.251,0,8.117,1.742,10.912,4.537
					l0.203,0.222c2.68,2.782,4.333,6.56,4.333,10.695c0,4.25-1.736,8.122-4.536,10.917c-2.795,2.795-6.661,4.536-10.912,4.536
					h-49.404c-4.255,0-8.122-1.741-10.921-4.536l-0.204-0.222c-2.679-2.786-4.334-6.561-4.334-10.695
					c0-4.246,1.742-8.108,4.538-10.902l0.018-0.014C880.817,440.323,884.68,438.581,888.926,438.581L888.926,438.581z
					 M938.33,445.539h-49.404c-2.338,0-4.462,0.952-6.002,2.485l-0.014,0.014c-1.529,1.538-2.485,3.663-2.485,5.996
					c0,2.264,0.892,4.32,2.338,5.84l0.167,0.157c1.538,1.539,3.663,2.499,5.996,2.499h49.404c2.328,0,4.453-0.96,5.997-2.499
					c1.533-1.539,2.494-3.664,2.494-5.997c0-2.264-0.887-4.324-2.328-5.839l-0.166-0.157
					C942.783,446.495,940.658,445.539,938.33,445.539z"/>
				<path fill-rule="evenodd" clip-rule="evenodd" fill="#33A4AC" d="M896.688,338.895c1.339-0.716,3.002-0.218,3.724,1.118
					c0.721,1.339,0.222,3.007-1.119,3.728c-0.041,0.019-14.571,7.6-18.959,25.128c-0.37,1.474-1.867,2.374-3.341,2.005
					c-1.474-0.37-2.37-1.862-2-3.336C879.982,347.612,896.641,338.922,896.688,338.895L896.688,338.895z M873.605,378.02
					c0.033-1.515,1.285-2.721,2.8-2.688c1.516,0.027,2.727,1.279,2.693,2.799l-0.014,1.132l0.019,1.118
					c0.038,1.515-1.164,2.776-2.68,2.808c-1.515,0.037-2.771-1.164-2.809-2.679l-0.018-1.247L873.605,378.02z"/>
				<g>
					<path fill-rule="evenodd" clip-rule="evenodd" fill="#33A4AC" d="M915.185,312.565c0,1.779-1.441,3.225-3.22,3.225
						c-1.779,0-3.22-1.446-3.22-3.225v-9.087c0-1.779,1.44-3.22,3.22-3.22c1.778,0,3.22,1.441,3.22,3.22V312.565z"/>
					<path fill-rule="evenodd" clip-rule="evenodd" fill="#33A4AC" d="M879.206,321.371c0.886,1.543,0.36,3.512-1.184,4.403
						c-1.538,0.887-3.511,0.36-4.397-1.183l-4.546-7.872c-0.888-1.539-0.36-3.506,1.182-4.398c1.534-0.887,3.508-0.36,4.399,1.178
						L879.206,321.371z"/>
					<path fill-rule="evenodd" clip-rule="evenodd" fill="#33A4AC" d="M852.447,346.988c1.533,0.892,2.064,2.859,1.174,4.402
						c-0.888,1.538-2.854,2.065-4.398,1.178l-7.872-4.546c-1.538-0.892-2.069-2.86-1.178-4.398c0.892-1.543,2.859-2.07,4.402-1.183
						L852.447,346.988z"/>
					<path fill-rule="evenodd" clip-rule="evenodd" fill="#33A4AC" d="M849.846,382.552c1.779,0,3.222,1.446,3.222,3.22
						c0,1.779-1.442,3.225-3.222,3.225h-9.091c-1.779,0-3.22-1.446-3.22-3.225c0-1.773,1.44-3.22,3.22-3.22H849.846z"/>
					<path fill-rule="evenodd" clip-rule="evenodd" fill="#33A4AC" d="M944.724,321.371c-0.887,1.543-0.359,3.512,1.183,4.403
						c1.539,0.887,3.512,0.36,4.398-1.183l4.546-7.872c0.887-1.539,0.36-3.506-1.182-4.398c-1.539-0.887-3.512-0.36-4.399,1.178
						L944.724,321.371z"/>
					<path fill-rule="evenodd" clip-rule="evenodd" fill="#33A4AC" d="M971.481,346.988c-1.538,0.892-2.063,2.859-1.172,4.402
						c0.886,1.538,2.854,2.065,4.397,1.178l7.872-4.546c1.533-0.892,2.065-2.86,1.174-4.398c-0.888-1.543-2.855-2.07-4.398-1.183
						L971.481,346.988z"/>
					<path fill-rule="evenodd" clip-rule="evenodd" fill="#33A4AC" d="M974.083,382.552c-1.778,0-3.22,1.446-3.22,3.22
						c0,1.779,1.441,3.225,3.22,3.225h9.087c1.783,0,3.226-1.446,3.226-3.225c0-1.773-1.442-3.22-3.226-3.22H974.083z"/>
				</g>
			</g>
			<g>
				<g>
					<path fill-rule="evenodd" clip-rule="evenodd" fill="#7BCED4" d="M1154.456,1076.969h118.12c1.917,0,3.479,1.557,3.479,3.479
						v123.027c0,1.92-1.562,3.478-3.479,3.478h-118.12c-1.922,0-3.479-1.558-3.479-3.478v-123.027
						C1150.977,1078.525,1152.534,1076.969,1154.456,1076.969L1154.456,1076.969z M1269.097,1083.926h-111.162v116.07h111.162
						V1083.926z"/>
					<path fill-rule="evenodd" clip-rule="evenodd" fill="#7BCED4" d="M1154.456,1181.591c1.921,0,3.479,1.558,3.479,3.474
						c0,1.922-1.558,3.479-3.479,3.479h-15.952c-1.918,0-3.479-1.558-3.479-3.479v-142.359c0-1.923,1.562-3.48,3.479-3.48h118.115
						c1.922,0,3.483,1.558,3.483,3.48v37.743c0,1.923-1.562,3.478-3.483,3.478c-1.918,0-3.479-1.555-3.479-3.478v-34.266h-111.158
						v135.408H1154.456z"/>
					<path fill-rule="evenodd" clip-rule="evenodd" fill="#7BCED4" d="M1138.504,1163.18c1.916,0,3.478,1.557,3.478,3.479
						c0,1.921-1.562,3.478-3.478,3.478h-22.088c-1.922,0-3.479-1.557-3.479-3.478v-142.365c0-1.916,1.558-3.478,3.479-3.478h118.115
						c1.922,0,3.479,1.562,3.479,3.478v18.411c0,1.92-1.557,3.478-3.479,3.478s-3.479-1.558-3.479-3.478v-14.932H1119.89v135.406
						H1138.504z"/>
					<path fill-rule="evenodd" clip-rule="evenodd" fill="#7BCED4" d="M1154.456,1066.428c-1.922,0-3.479-1.557-3.479-3.48
						c0-1.916,1.558-3.477,3.479-3.477h118.115c1.922,0,3.479,1.561,3.479,3.477c0,1.924-1.558,3.48-3.479,3.48H1154.456z"/>
					<path fill-rule="evenodd" clip-rule="evenodd" fill="#7BCED4" d="M1171.327,1145.273c-1.917,0-3.474-1.557-3.474-3.478
						c0-1.919,1.557-3.479,3.474-3.479h84.063c1.921,0,3.479,1.561,3.479,3.479c0,1.921-1.558,3.478-3.479,3.478H1171.327z"/>
				</g>
				<g>
					<g>
						<path fill-rule="evenodd" clip-rule="evenodd" fill="#7BCED4" d="M1171.664,1098.409h16.549c1.307,0,2.37,1.069,2.37,2.375
							v20.471c0,1.308-1.063,2.375-2.37,2.375h-16.549c-1.308,0-2.37-1.067-2.37-2.375v-20.471
							C1169.294,1099.479,1170.356,1098.409,1171.664,1098.409z"/>
						<path fill-rule="evenodd" clip-rule="evenodd" fill="#7BCED4" d="M1205.241,1098.409h16.549c1.303,0,2.369,1.069,2.369,2.375
							v20.471c0,1.308-1.066,2.375-2.369,2.375h-16.549c-1.308,0-2.369-1.067-2.369-2.375v-20.471
							C1202.872,1099.479,1203.934,1098.409,1205.241,1098.409z"/>
						<path fill-rule="evenodd" clip-rule="evenodd" fill="#7BCED4" d="M1238.818,1098.409h16.549c1.303,0,2.369,1.069,2.369,2.375
							v20.471c0,1.308-1.066,2.375-2.369,2.375h-16.549c-1.303,0-2.369-1.067-2.369-2.375v-20.471
							C1236.449,1099.479,1237.516,1098.409,1238.818,1098.409z"/>
					</g>
					<g>
						<path fill-rule="evenodd" clip-rule="evenodd" fill="#7BCED4" d="M1171.664,1160.294h16.549c1.307,0,2.37,1.066,2.37,2.374
							v20.47c0,1.308-1.063,2.374-2.37,2.374h-16.549c-1.308,0-2.37-1.066-2.37-2.374v-20.47
							C1169.294,1161.36,1170.356,1160.294,1171.664,1160.294z"/>
						<path fill-rule="evenodd" clip-rule="evenodd" fill="#7BCED4" d="M1205.241,1160.294h16.549c1.303,0,2.369,1.066,2.369,2.374
							v20.47c0,1.308-1.066,2.374-2.369,2.374h-16.549c-1.308,0-2.369-1.066-2.369-2.374v-20.47
							C1202.872,1161.36,1203.934,1160.294,1205.241,1160.294z"/>
						<path fill-rule="evenodd" clip-rule="evenodd" fill="#7BCED4" d="M1238.818,1160.294h16.549c1.303,0,2.369,1.066,2.369,2.374
							v20.47c0,1.308-1.066,2.374-2.369,2.374h-16.549c-1.303,0-2.369-1.066-2.369-2.374v-20.47
							C1236.449,1161.36,1237.516,1160.294,1238.818,1160.294z"/>
					</g>
				</g>
			</g>
			<g>
				<path fill-rule="evenodd" clip-rule="evenodd" fill="#7BCED4" d="M409.58,1153.332l24.18,25.335v-23.415
					c0-1.689,1.372-3.057,3.058-3.057h9.175c1.188,0,2.264-0.482,3.031-1.253l0.051-0.047c0.753-0.771,1.215-1.829,1.215-2.998
					v-63.878c0-1.178-0.489-2.255-1.266-3.03c-0.776-0.782-1.852-1.266-3.031-1.266h-99.973c-1.183,0-2.255,0.479-3.031,1.251
					l-0.069,0.069c-0.735,0.771-1.197,1.821-1.197,2.976v11.406h-6.116v-11.406c0-2.832,1.154-5.424,3.012-7.305l0.046-0.04
					c1.894-1.896,4.5-3.074,7.355-3.074h99.973c2.865,0,5.475,1.175,7.36,3.06c1.884,1.885,3.053,4.496,3.053,7.359v63.878
					c0,2.831-1.146,5.405-2.999,7.292l-0.055,0.055c-1.899,1.897-4.505,3.072-7.36,3.072h-6.112v27.974
					c-0.014,0.803-0.328,1.607-0.957,2.208c-1.219,1.159-3.15,1.108-4.314-0.108l-26.98-28.271v-7.896
					C408.416,1152.332,409.104,1152.744,409.58,1153.332z"/>
				<path fill-rule="evenodd" clip-rule="evenodd" fill="#7BCED4" d="M352.917,1178.527l29.623,31.037v-31.037h9.17
					c4.052,0,7.359-3.307,7.359-7.354v-59.831c0-4.053-3.313-7.361-7.359-7.361h-99.974c-4.042,0-7.355,3.313-7.355,7.361v59.831
					c0,4.048,3.308,7.354,7.355,7.354H352.917L352.917,1178.527z M312.452,1131.642c4.112,0,7.447,3.33,7.447,7.441
					s-3.335,7.443-7.447,7.443c-4.111,0-7.443-3.332-7.443-7.443S308.341,1131.642,312.452,1131.642L312.452,1131.642z
					 M341.728,1131.642c4.112,0,7.443,3.33,7.443,7.441s-3.331,7.443-7.443,7.443c-4.116,0-7.442-3.332-7.442-7.443
					S337.612,1131.642,341.728,1131.642L341.728,1131.642z M371.004,1131.642c4.111,0,7.442,3.33,7.442,7.441
					s-3.331,7.443-7.442,7.443c-4.112,0-7.447-3.332-7.447-7.443S366.893,1131.642,371.004,1131.642z"/>
			</g>
			<g>
				<g>
					<path fill-rule="evenodd" clip-rule="evenodd" fill="#7BCED4" d="M1060.525,648.41c2.928-2.93,7.678-2.93,10.611,0
						c2.934,2.933,2.934,7.687,0,10.616c-2.934,2.929-7.684,2.929-10.611,0C1057.592,656.097,1057.592,651.343,1060.525,648.41z"/>
					<path fill-rule="evenodd" clip-rule="evenodd" fill="#7BCED4" d="M1054.288,642.173c3.188-3.188,7.364-4.781,11.54-4.781
						l0.153,0.009c4.126,0.036,8.246,1.626,11.393,4.772c3.187,3.188,4.781,7.369,4.781,11.545c0,4.177-1.595,8.357-4.781,11.545
						c-3.185,3.183-7.36,4.777-11.536,4.777c-4.186,0.004-8.362-1.589-11.55-4.777c-3.183-3.183-4.776-7.364-4.776-11.54v-0.06
						C1049.521,649.504,1051.113,645.347,1054.288,642.173L1054.288,642.173z M1065.828,641.443c-3.141,0-6.282,1.201-8.676,3.599
						c-2.397,2.397-3.599,5.539-3.599,8.676c0,3.137,1.201,6.278,3.599,8.681c2.394,2.394,5.535,3.595,8.676,3.595
						c3.143,0,6.284-1.197,8.677-3.595c2.397-2.397,3.599-5.543,3.599-8.681c0-3.137-1.201-6.283-3.599-8.676
						c-2.365-2.37-5.451-3.567-8.552-3.599H1065.828z"/>
				</g>
				<path fill-rule="evenodd" clip-rule="evenodd" fill="#7BCED4" d="M1131.786,664.963c0,0,14.898,23.053,17.865,31.872
					l0.304,0.254l-0.021,0.027l9.226,9.226c7.082,7.083,3.243,8.921,0.259,11.809l-15.246,15.246
					c-5.83,5.835-7.479,2.411-9.775,0.032l-10.386-10.39c0,0-12.012,0.323-18.433-2.555c-5.082-2.277-25.077-13.545-33.203-18.152
					c-1.954-1.104-2.729-3.533-1.783-5.571c0.845-1.815,2.832-2.813,4.795-2.402l14.313,2.989c2.481,0.522,4.935-1.002,5.567-3.456
					c0.396-1.543,0-3.178-1.063-4.361l-30.693-33.286c-1.127-1.252-1.109-3.151,0.037-4.384l0.332-0.37
					c1.243-1.335,3.341-1.391,4.652-0.125l31.892,28.463c1.589,1.492,0.17-7.655,10.366-7.558c0,0,3.419-8.916,10.727-6.796
					C1121.516,665.475,1124.694,660.26,1131.786,664.963z"/>
			</g>
		</g>
		<g>
			<g>
				<path fill-rule="evenodd" clip-rule="evenodd" fill="#33A4AC" d="M384.421,159.645h545.501c1.71,2.217,2.727,4.994,2.727,8.011
					c0,3.017-1.017,5.793-2.727,8.006H384.421c-4.403,0-8.002-3.599-8.002-8.006l0,0
					C376.419,163.248,380.018,159.645,384.421,159.645z"/>
				<path fill-rule="evenodd" clip-rule="evenodd" fill="#FFFFFF" d="M919.546,154.548c4.223,0,7.974,1.996,10.376,5.096
					l0.074,0.106l0.052,0.065l0.031,0.042l0.078,0.106l0.074,0.106l0.079,0.106l0.074,0.105l0.027,0.047l0.046,0.064l0.069,0.106
					l0.06,0.088l0.019,0.027l0.065,0.111l0.069,0.111l0.013,0.019l0.056,0.092l0.064,0.116l0.043,0.069l0.027,0.046l0.064,0.115
					l0.061,0.111l0.064,0.121l0.06,0.115l0.023,0.051l0.037,0.069l0.06,0.12l0.042,0.092l0.014,0.023l0.06,0.12l0.057,0.12
					l0.008,0.023l0.047,0.101l0.047,0.121l0.036,0.069l0.019,0.051l0.051,0.125l0.046,0.12h0.005l0.051,0.129l0.042,0.12
					l0.018,0.051l0.028,0.078l0.046,0.125l0.037,0.102l0.01,0.023l0.036,0.13l0.047,0.129l0.004,0.027l0.033,0.097l0.037,0.129
					l0.023,0.079l0.014,0.056l0.037,0.125l0.031,0.134l0.033,0.13l0.032,0.133l0.014,0.051l0.019,0.083l0.027,0.129l0.028,0.106
					v0.028l0.027,0.129l0.018,0.138l0.01,0.028l0.018,0.106l0.023,0.134l0.015,0.083l0.009,0.051l0.019,0.138l0.019,0.139
					l0.019,0.134l0.01,0.139l0.009,0.056l0.005,0.079l0.014,0.143l0.009,0.111l0.005,0.023l0.005,0.144l0.009,0.134v0.032
					l0.01,0.111v0.138l0.01,0.083v0.06v0.139v0.144v0.138v0.144v0.055l-0.01,0.083v0.143l-0.01,0.111v0.028l-0.009,0.138
					l-0.005,0.138l-0.005,0.028l-0.009,0.111l-0.014,0.139l-0.005,0.083l-0.009,0.056l-0.01,0.134l-0.019,0.139l-0.019,0.139
					l-0.019,0.134l-0.009,0.051l-0.015,0.088l-0.023,0.129l-0.018,0.111l-0.01,0.028l-0.018,0.134l-0.027,0.134v0.028l-0.028,0.106
					l-0.027,0.129l-0.019,0.079l-0.014,0.055l-0.032,0.13l-0.033,0.134l-0.031,0.129l-0.037,0.129l-0.014,0.055l-0.023,0.079
					l-0.037,0.125l-0.033,0.102l-0.004,0.028l-0.047,0.125l-0.036,0.129l-0.01,0.028l-0.037,0.102l-0.046,0.125l-0.028,0.078
					l-0.018,0.046l-0.042,0.125l-0.051,0.125h-0.005l-0.046,0.125l-0.051,0.125l-0.019,0.046l-0.036,0.074l-0.047,0.12l-0.047,0.097
					l-0.008,0.028l-0.057,0.119l-0.06,0.116l-0.014,0.027l-0.042,0.092l-0.06,0.12l-0.037,0.07l-0.023,0.051l-0.06,0.111
					l-0.064,0.12l-0.061,0.115l-0.064,0.111l-0.027,0.051l-0.043,0.064l-0.064,0.115l-0.056,0.093l-0.013,0.023l-0.069,0.111
					l-0.065,0.106l-0.019,0.028l-0.06,0.088l-0.069,0.106l-0.046,0.07l-0.027,0.041l-0.074,0.111l-0.079,0.106l-0.074,0.102
					l-0.078,0.106l-0.031,0.046l-0.052,0.061l-0.074,0.106c-2.402,3.095-6.172,5.101-10.376,5.101
					c-7.24,0-13.111-5.872-13.111-13.106C906.435,160.416,912.306,154.548,919.546,154.548z"/>
			</g>
			<path fill-rule="evenodd" clip-rule="evenodd" fill="#083A47" d="M1112.646,159.645H929.922c1.71,2.217,2.727,4.994,2.727,8.011
				c0,3.017-1.017,5.793-2.727,8.006h182.725c4.407,0,8.006-3.599,8.006-8.006S1117.054,159.645,1112.646,159.645z"/>
		</g>
	</g>
</g>
</svg>
